<svg width="456" height="421" viewBox="0 0 456 421" fill="none" xmlns="http://www.w3.org/2000/svg">
<g clip-path="url(#clip0_341_11825)">
<g clip-path="url(#clip1_341_11825)">
<rect x="58.9229" width="338.166" height="295.469" rx="6.83164" fill="#F2F2F2"/>
<path d="M58.9229 6.83164C58.9229 3.05862 61.9815 0 65.7546 0H390.258C394.031 0 397.089 3.05863 397.089 6.83164V23.0568H58.9229V6.83164Z" fill="#C5CFD6"/>
<path fill-rule="evenodd" clip-rule="evenodd" d="M70.0244 15.3712C71.9109 15.3712 73.4402 13.8419 73.4402 11.9554C73.4402 10.0689 71.9109 8.53955 70.0244 8.53955C68.1379 8.53955 66.6086 10.0689 66.6086 11.9554C66.6086 13.8419 68.1379 15.3712 70.0244 15.3712Z" fill="#F2F2F2"/>
<path fill-rule="evenodd" clip-rule="evenodd" d="M80.272 15.3712C82.1585 15.3712 83.6878 13.8419 83.6878 11.9554C83.6878 10.0689 82.1585 8.53955 80.272 8.53955C78.3855 8.53955 76.8562 10.0689 76.8562 11.9554C76.8562 13.8419 78.3855 15.3712 80.272 15.3712Z" fill="#F2F2F2"/>
<path fill-rule="evenodd" clip-rule="evenodd" d="M90.5195 15.3712C92.406 15.3712 93.9353 13.8419 93.9353 11.9554C93.9353 10.0689 92.406 8.53955 90.5195 8.53955C88.633 8.53955 87.1036 10.0689 87.1036 11.9554C87.1036 13.8419 88.633 15.3712 90.5195 15.3712Z" fill="#F2F2F2"/>
<g clip-path="url(#clip2_341_11825)">
<g clip-path="url(#clip3_341_11825)">
<rect x="323.649" y="112.722" width="59.7769" height="165.667" rx="6.83164" fill="white"/>
<g clip-path="url(#clip4_341_11825)">
<rect x="339.02" y="128.093" width="29.0345" height="22.2028" rx="3.41582" fill="#DDE3E9"/>
<rect x="339.02" y="157.128" width="29.0345" height="21.3489" rx="3.41582" fill="#AFB9C5"/>
<rect x="339.02" y="185.308" width="29.0345" height="21.3489" rx="3.41582" fill="#DDE3E9"/>
<rect x="339.02" y="241.669" width="29.0345" height="21.3489" rx="3.41582" fill="#DDE3E9"/>
<rect x="339.02" y="213.489" width="29.0345" height="21.3489" rx="3.41582" fill="#C5CFD6"/>
</g>
</g>
<rect x="323.649" y="36.7201" width="59.7769" height="69.1704" rx="6.83164" fill="white"/>
<g clip-path="url(#clip5_341_11825)">
<path fill-rule="evenodd" clip-rule="evenodd" d="M353.538 76.856C361.084 76.856 367.201 70.7387 367.201 63.1927C367.201 55.6467 361.084 49.5294 353.538 49.5294C345.992 49.5294 339.874 55.6467 339.874 63.1927C339.874 70.7387 345.992 76.856 353.538 76.856Z" fill="#DDE3E9"/>
<rect x="332.189" y="80.2719" width="42.6978" height="5.12373" rx="2.56187" fill="#DDE3E9"/>
<rect x="339.02" y="88.8114" width="29.0345" height="5.12373" rx="2.56187" fill="#DDE3E9"/>
</g>
<g clip-path="url(#clip6_341_11825)">
<g clip-path="url(#clip7_341_11825)">
<rect x="72.5863" y="36.7201" width="244.231" height="40.1359" rx="3.41582" fill="white"/>
<g clip-path="url(#clip8_341_11825)">
<rect x="80.2717" y="48.7609" width="194.702" height="6.02039" rx="2.56187" fill="#DDE3E9"/>
<rect x="80.2715" y="58.7948" width="130.69" height="6.02039" rx="2.56187" fill="#DDE3E9"/>
</g>
<path fill-rule="evenodd" clip-rule="evenodd" d="M290.716 62.7657C294.018 62.7657 296.694 60.0894 296.694 56.788C296.694 53.4866 294.018 50.8103 290.716 50.8103C287.415 50.8103 284.739 53.4866 284.739 56.788C284.739 60.0894 287.415 62.7657 290.716 62.7657Z" fill="#DDE3E9"/>
<path fill-rule="evenodd" clip-rule="evenodd" d="M290.716 59.3499C292.131 59.3499 293.278 58.2029 293.278 56.7881C293.278 55.3732 292.131 54.2262 290.716 54.2262C289.301 54.2262 288.154 55.3732 288.154 56.7881C288.154 58.2029 289.301 59.3499 290.716 59.3499Z" fill="#F2F2F2"/>
</g>
<g clip-path="url(#clip9_341_11825)">
<rect x="72.5861" y="83.6876" width="244.231" height="33.3043" rx="3.41582" fill="white"/>
<g clip-path="url(#clip10_341_11825)">
<rect x="80.2715" y="93.679" width="194.702" height="4.99564" rx="2.49782" fill="#DDE3E9"/>
<rect x="80.2713" y="102.005" width="130.69" height="4.99564" rx="2.49782" fill="#DDE3E9"/>
</g>
<path fill-rule="evenodd" clip-rule="evenodd" d="M290.716 106.317C294.017 106.317 296.694 103.641 296.694 100.34C296.694 97.0384 294.017 94.3621 290.716 94.3621C287.415 94.3621 284.738 97.0384 284.738 100.34C284.738 103.641 287.415 106.317 290.716 106.317Z" fill="#DDE3E9"/>
<path fill-rule="evenodd" clip-rule="evenodd" d="M290.716 102.902C292.131 102.902 293.278 101.755 293.278 100.34C293.278 98.9248 292.131 97.7778 290.716 97.7778C289.301 97.7778 288.154 98.9248 288.154 100.34C288.154 101.755 289.301 102.902 290.716 102.902Z" fill="#F2F2F2"/>
</g>
<g clip-path="url(#clip11_341_11825)">
<rect x="72.5861" y="123.824" width="244.231" height="33.3043" rx="3.41582" fill="white"/>
<g clip-path="url(#clip12_341_11825)">
<rect x="80.2715" y="133.815" width="194.702" height="4.99564" rx="2.49782" fill="#DDE3E9"/>
<rect x="80.2713" y="142.141" width="130.69" height="4.99564" rx="2.49782" fill="#DDE3E9"/>
</g>
<path fill-rule="evenodd" clip-rule="evenodd" d="M290.716 146.453C294.017 146.453 296.694 143.777 296.694 140.476C296.694 137.174 294.017 134.498 290.716 134.498C287.415 134.498 284.738 137.174 284.738 140.476C284.738 143.777 287.415 146.453 290.716 146.453Z" fill="#DDE3E9"/>
<path fill-rule="evenodd" clip-rule="evenodd" d="M290.716 143.038C292.131 143.038 293.278 141.891 293.278 140.476C293.278 139.061 292.131 137.914 290.716 137.914C289.301 137.914 288.154 139.061 288.154 140.476C288.154 141.891 289.301 143.038 290.716 143.038Z" fill="#AFB9C5"/>
</g>
<g clip-path="url(#clip13_341_11825)">
<rect x="72.5861" y="244.231" width="244.231" height="33.3043" rx="3.41582" fill="white"/>
<g clip-path="url(#clip14_341_11825)">
<rect x="80.2715" y="254.223" width="194.702" height="4.99564" rx="2.49782" fill="#DDE3E9"/>
<rect x="80.2713" y="262.549" width="130.69" height="4.99564" rx="2.49782" fill="#DDE3E9"/>
</g>
<path fill-rule="evenodd" clip-rule="evenodd" d="M290.716 266.861C294.017 266.861 296.694 264.185 296.694 260.883C296.694 257.582 294.017 254.906 290.716 254.906C287.415 254.906 284.738 257.582 284.738 260.883C284.738 264.185 287.415 266.861 290.716 266.861Z" fill="#DDE3E9"/>
<path fill-rule="evenodd" clip-rule="evenodd" d="M290.716 263.445C292.131 263.445 293.278 262.298 293.278 260.883C293.278 259.468 292.131 258.321 290.716 258.321C289.301 258.321 288.154 259.468 288.154 260.883C288.154 262.298 289.301 263.445 290.716 263.445Z" fill="#F2F2F2"/>
</g>
<g clip-path="url(#clip15_341_11825)">
<rect x="72.5861" y="204.095" width="244.231" height="33.3043" rx="3.41582" fill="white"/>
<g clip-path="url(#clip16_341_11825)">
<rect x="80.2715" y="214.087" width="194.702" height="4.99564" rx="2.49782" fill="#DDE3E9"/>
<rect x="80.2713" y="222.413" width="130.69" height="4.99564" rx="2.49782" fill="#DDE3E9"/>
</g>
<path fill-rule="evenodd" clip-rule="evenodd" d="M290.716 226.725C294.017 226.725 296.694 224.049 296.694 220.747C296.694 217.446 294.017 214.77 290.716 214.77C287.415 214.77 284.738 217.446 284.738 220.747C284.738 224.049 287.415 226.725 290.716 226.725Z" fill="#DDE3E9"/>
<path fill-rule="evenodd" clip-rule="evenodd" d="M290.716 223.309C292.131 223.309 293.278 222.162 293.278 220.747C293.278 219.333 292.131 218.186 290.716 218.186C289.301 218.186 288.154 219.333 288.154 220.747C288.154 222.162 289.301 223.309 290.716 223.309Z" fill="#F2F2F2"/>
</g>
<g clip-path="url(#clip17_341_11825)">
<rect x="72.5861" y="163.959" width="244.231" height="33.3043" rx="3.41582" fill="white"/>
<g clip-path="url(#clip18_341_11825)">
<rect x="80.2715" y="173.951" width="194.702" height="4.99564" rx="2.49782" fill="#DDE3E9"/>
<rect x="80.2713" y="182.277" width="130.69" height="4.99564" rx="2.49782" fill="#DDE3E9"/>
</g>
<path fill-rule="evenodd" clip-rule="evenodd" d="M290.716 186.589C294.017 186.589 296.694 183.913 296.694 180.612C296.694 177.31 294.017 174.634 290.716 174.634C287.415 174.634 284.738 177.31 284.738 180.612C284.738 183.913 287.415 186.589 290.716 186.589Z" fill="#DDE3E9"/>
<path fill-rule="evenodd" clip-rule="evenodd" d="M290.716 183.173C292.131 183.173 293.278 182.026 293.278 180.612C293.278 179.197 292.131 178.05 290.716 178.05C289.301 178.05 288.154 179.197 288.154 180.612C288.154 182.026 289.301 183.173 290.716 183.173Z" fill="#F2F2F2"/>
</g>
</g>
</g>
</g>
<path fill-rule="evenodd" clip-rule="evenodd" d="M104.307 155.684C109.592 157.928 114.58 158.67 116.746 157.776C122.179 155.536 119.808 134.905 114.308 127.413C108.808 119.921 85.8904 119.539 87.0172 135.756C87.4082 141.385 90.4545 146.029 94.493 149.6L92.3357 179.37L110.399 176.831L104.307 155.684Z" fill="#B28B67"/>
<path fill-rule="evenodd" clip-rule="evenodd" d="M105.932 119.588C103.359 119.185 99.7399 119.434 98.2568 119.818C98.8264 117.649 98.8459 115.32 98.2563 113.137C97.6833 111.016 96.4575 109.314 95.2919 107.513C94.7547 106.684 94.1631 105.866 93.3708 105.285C92.5636 104.693 91.6007 104.363 90.6277 104.277C89.632 104.19 88.6262 104.35 87.6888 104.688C87.2741 104.838 86.9181 105.086 86.5143 105.254C86.1007 105.425 85.8549 105.186 85.5056 104.961C84.6639 104.418 83.5185 104.253 82.5527 104.271C81.4693 104.293 80.3862 104.608 79.4192 105.1C78.4779 105.579 77.6054 106.265 77.0033 107.169C76.7352 107.572 76.5035 108.02 76.3789 108.496C76.3278 108.692 76.3304 108.803 76.1552 108.897C75.9931 108.983 75.7935 109.013 75.6255 109.098C74.0011 109.913 72.7277 111.432 72.1708 113.23C71.846 114.279 71.87 116.042 72.203 117.976C72.536 119.909 75.0068 124.729 76.9114 126.346C78.6115 127.789 80.9226 128.574 83.0724 128.758C81.9113 130.528 81.2678 132.626 80.8686 134.724C80.4351 137.002 80.2952 139.326 80.4499 141.653C80.5969 143.863 80.9072 146.178 81.7224 148.247C82.485 150.181 83.7449 151.679 85.6093 152.48C86.4633 152.846 87.3604 153.086 88.258 153.294C89.1426 153.499 90.0285 153.695 90.9331 153.752C92.645 153.861 94.5538 153.533 95.6499 152.033C96.0449 151.492 96.4688 150.822 96.7241 150.193C96.8159 149.967 96.8697 149.82 96.6938 149.636C96.483 149.416 96.1714 149.269 95.918 149.109C94.4726 148.199 93.468 146.854 93.023 145.15C92.5714 143.421 92.7261 141.086 94.3323 140.078C96.3149 138.834 98.7977 139.593 100.821 140.342C101.224 137.417 102.51 134.655 104.901 133.003C107.547 131.176 110.789 130.55 113.542 128.915C114.26 128.488 114.985 128.017 115.455 127.288C115.651 126.983 115.877 126.592 115.92 126.22C115.977 125.73 115.616 125.378 115.328 125.043C113.803 123.267 108.506 119.992 105.932 119.588Z" fill="#191847"/>
<path fill-rule="evenodd" clip-rule="evenodd" d="M98.8028 239.047L155.277 333.178L197.617 412.758H206.736L135.796 239.047L98.8028 239.047Z" fill="#997659"/>
<path fill-rule="evenodd" clip-rule="evenodd" d="M194.332 408.318C193.415 407.922 192.329 408.328 191.992 409.268C191.448 410.784 190.765 412.931 190.765 414.164C190.765 416.214 191.45 420.146 191.45 420.146C193.835 420.146 234.317 420.146 234.317 420.146C234.317 420.146 235.988 414.639 232.388 414.199C228.788 413.76 226.407 413.406 226.407 413.406L206.57 404.59C206.131 404.395 205.617 404.6 205.434 405.044L204.19 408.052C204.19 408.052 200.857 409.602 198.773 409.602C197.561 409.602 195.687 408.903 194.332 408.318Z" fill="#E4E4E4"/>
<path fill-rule="evenodd" clip-rule="evenodd" d="M185.858 400.015L203.445 394.711C203.445 394.711 191.887 360.263 175.113 318.893C158.339 277.523 139.084 239.047 139.084 239.047H89.4118C89.4118 239.047 110.819 287.718 134.802 327.494C158.784 367.27 185.858 400.015 185.858 400.015Z" fill="#DB2721"/>
<path fill-rule="evenodd" clip-rule="evenodd" d="M95.0914 239.047C89.7612 272.126 79.4809 314.387 78.5107 315.691C77.8639 316.561 54.5793 324.34 8.65674 339.028L10.6267 347.046C65.3892 339.168 94.2444 333.057 97.1922 328.711C101.614 322.192 123.692 270.693 132.244 239.047H95.0914Z" fill="#B28B67"/>
<path fill-rule="evenodd" clip-rule="evenodd" d="M24.7989 332.098L28.2687 345.01C69.2279 348.592 94.3245 346.004 103.558 337.247C112.792 328.489 123.317 295.756 135.131 239.047H87.7655C80.2804 285.484 76.0957 309.677 75.2115 311.627C74.3273 313.576 57.5231 320.4 24.7989 332.098Z" fill="#FF4133"/>
<path fill-rule="evenodd" clip-rule="evenodd" d="M12.058 337.816C12.2903 336.842 11.6994 335.839 10.712 335.671C9.12041 335.401 6.88329 335.104 5.66655 335.318C3.64198 335.674 -0.123208 337.029 -0.123208 337.029C0.290921 339.371 7.32049 379.117 7.32049 379.117C7.32049 379.117 13.0507 379.802 12.8594 376.191C12.668 372.58 12.604 370.18 12.604 370.18L17.8672 349.178C17.9842 348.711 17.6916 348.239 17.2209 348.136L14.0356 347.437C14.0356 347.437 11.9255 344.434 11.5637 342.388C11.3538 341.201 11.7166 339.247 12.058 337.816Z" fill="#E4E4E4"/>
<path fill-rule="evenodd" clip-rule="evenodd" d="M152.232 172.245L128.113 190.181L139.211 199.148L155.758 179.153C165.371 175 169.662 172.347 168.629 171.195C167.758 170.223 166.603 170.424 165.538 170.608C164.709 170.752 163.935 170.886 163.394 170.449C162.159 169.452 163.643 165.148 165.226 161.123C166.809 157.098 164.601 157.74 163.388 158.457C159.572 161.895 155.853 166.491 152.232 172.245ZM181.311 188.569L170.719 196.466L172.986 207.855C172.986 207.855 179.667 201.463 185.811 198.787C193.645 195.375 196.7 193.181 199.972 187.56C201.723 184.553 202.767 178.855 200.489 177.367C199.616 176.797 196.942 178.811 194.213 180.866C192.134 182.432 190.023 184.022 188.653 184.51C186.809 185.166 186.687 182.682 186.589 180.696C186.519 179.271 186.461 178.103 185.789 178.538C182.438 179.067 181.311 188.569 181.311 188.569Z" fill="#997659"/>
<path fill-rule="evenodd" clip-rule="evenodd" d="M114.945 188.791C124.081 187.409 136.012 183.767 147.874 173.698L154.584 184.348C146.853 194.495 135.251 203.571 124.167 204.813C115.432 205.792 109.51 195.924 114.945 188.791Z" fill="#2026A2"/>
<path fill-rule="evenodd" clip-rule="evenodd" d="M109.42 160.135L111.498 159.843C114.112 171.67 119.917 184.058 125.759 196.526C127.123 199.438 128.489 202.353 129.817 205.268C145.477 206.569 177.496 189.877 177.496 189.877C177.496 189.877 188.469 206.229 188.878 213.792C170.698 226.764 154.526 233.681 140.718 235.928C142.31 244.06 142.405 251.998 140.046 259.594C136.885 269.772 117.79 269.97 101.212 270.142C92.3548 270.234 84.2157 270.318 79.6097 271.914C71.8766 255.453 74.767 243.998 77.4352 233.423C79.0434 227.05 80.5708 220.997 79.6432 214.36C76.9417 195.033 88.3252 163.1 90.6151 162.778L91.2723 162.685C91.2723 162.685 91.2723 162.685 91.2723 162.685L109.42 160.135C109.42 160.135 109.42 160.135 109.42 160.135Z" fill="#1F28CF"/>
<path fill-rule="evenodd" clip-rule="evenodd" d="M327.42 155.482C322.895 159.017 318.27 161.025 315.946 160.723C310.118 159.964 307.069 139.423 310.442 130.763C313.816 122.102 335.854 115.802 338.963 131.758C340.042 137.296 338.301 142.57 335.325 147.065L345.114 175.262L327.009 177.485L327.42 155.482Z" fill="#B28B67"/>
<path fill-rule="evenodd" clip-rule="evenodd" d="M319.612 120.133C321.95 119.45 328.342 118.393 329.527 118.248C330.284 118.155 331.126 118.226 331.489 117.478C331.786 116.865 331.534 115.922 331.563 115.25C331.596 114.469 331.684 113.692 331.774 112.916C332.032 110.708 332.568 108.572 333.434 106.522C335.058 102.675 337.739 99.4896 341.358 97.383C345.355 95.0569 350.078 94.0568 354.66 93.8663C359.565 93.6625 364.157 94.721 368.926 95.662C373.471 96.5588 378.117 96.561 382.601 95.3001C387.118 94.0297 390.292 91.1146 393.885 88.2764C397.564 85.3708 401.913 83.2319 406.658 83.0183C411.086 82.819 415.352 84.1285 419.276 86.0957C422.947 87.9362 426.081 90.3081 428.132 93.9362C430.337 97.839 430.89 102.352 428.539 106.329C425.131 112.094 417.772 114.381 411.493 115.014C407.861 115.381 404.223 115.158 400.656 114.379C395.9 113.34 391.626 111.113 387.089 109.438C384.96 108.651 382.787 108.058 380.542 107.714C378.364 107.38 376.258 107.362 374.507 108.864C372.656 110.453 371.011 111.992 368.807 113.115C366.693 114.192 364.405 114.931 362.045 115.202C357.454 115.73 352.757 114.86 348.185 114.453C344.456 114.121 340.474 113.822 336.862 115.025C335.355 115.527 333.176 116.449 332.815 118.119C342.418 118.663 347.531 129.794 345.926 138.623C345.06 143.388 337.126 149.809 333.489 147.806C331.184 146.537 332.223 144.373 332.892 142.946C334.173 140.213 334.318 136.887 331.154 135.483C328.425 134.272 326.196 138.217 326.145 138.22C325.44 138.251 318.985 135.588 314.216 131.132C310.143 131.878 309.189 129.257 309.898 126.931C310.607 124.604 316.381 121.077 319.612 120.133Z" fill="#191847"/>
<path fill-rule="evenodd" clip-rule="evenodd" d="M366.506 239.047C365.136 257.695 276.852 312.596 276.337 314.136C275.994 315.163 303.817 379.06 303.817 379.06L296.099 382.05C296.099 382.05 253.424 314.378 255.616 307.168C258.754 296.844 324.114 239.246 324.114 239.246L366.506 239.047Z" fill="#B28B67"/>
<path fill-rule="evenodd" clip-rule="evenodd" d="M301.786 369.44L289.186 374.013C262.618 344.126 252.204 319.466 254.102 306.902C256.001 294.337 322.364 239.093 322.364 239.093L367.41 239.093C365.873 282.278 284.045 314.3 282.951 316.141C281.856 317.981 292.627 336.005 301.786 369.44Z" fill="#2F3676"/>
<path fill-rule="evenodd" clip-rule="evenodd" d="M304.239 377.653C304.965 376.968 306.126 376.979 306.765 377.747C307.796 378.986 309.174 380.771 309.597 381.93C310.3 383.856 311.006 387.784 311.006 387.784C308.765 388.598 270.724 402.401 270.724 402.401C270.724 402.401 267.265 397.796 270.497 396.156C273.729 394.515 275.846 393.371 275.846 393.371L291.461 378.322C291.807 377.989 292.36 378.006 292.685 378.361L294.885 380.763C294.885 380.763 298.549 381.084 300.507 380.373C301.646 379.96 303.166 378.664 304.239 377.653Z" fill="#E4E4E4"/>
<path fill-rule="evenodd" clip-rule="evenodd" d="M356.356 239.047L395.684 333.178L434.337 412.758H425.217L325.443 239.047H356.356Z" fill="#997659"/>
<path fill-rule="evenodd" clip-rule="evenodd" d="M432.591 408.318C433.508 407.922 434.594 408.328 434.931 409.268C435.475 410.784 436.158 412.931 436.158 414.164C436.158 416.214 435.473 420.146 435.473 420.146C433.088 420.146 392.606 420.146 392.606 420.146C392.606 420.146 390.935 414.639 394.535 414.199C398.135 413.76 400.516 413.406 400.516 413.406L420.353 404.59C420.792 404.394 421.306 404.6 421.489 405.044L422.733 408.052C422.733 408.052 426.066 409.602 428.149 409.602C429.362 409.602 431.236 408.903 432.591 408.318Z" fill="#E4E4E4"/>
<path fill-rule="evenodd" clip-rule="evenodd" d="M430.846 396.226L410.583 400.015C394.915 377.05 329.344 282.884 322.155 239.047H367.266C391.275 270.737 415.912 372.881 430.846 396.226Z" fill="#5C63AB"/>
<path fill-rule="evenodd" clip-rule="evenodd" d="M258.081 216.26L286.884 224.872L279.525 237.091L257.132 223.956C246.677 223.339 241.737 222.313 242.313 220.877C242.799 219.667 243.953 219.46 245.017 219.27C245.845 219.121 246.619 218.983 246.977 218.388C247.796 217.028 244.929 213.49 242.064 210.249C239.199 207.009 241.492 206.857 242.878 207.116C247.641 209.043 252.708 212.091 258.081 216.26ZM382.713 219.555L397.795 214.599C411.661 240.861 419.765 255.19 422.106 257.586C423.823 259.344 433.556 263.219 440.056 265.128C442.665 265.894 442.39 268.047 441.745 268.804C437.679 273.579 433.236 272.626 428.4 271.589C427 271.288 425.567 270.981 424.101 270.803C420.305 270.343 419.416 272.369 418.576 274.284C417.832 275.98 417.126 277.588 414.476 277.306C414.531 276.787 414.606 276.205 414.686 275.576C415.207 271.511 415.975 265.517 413.362 262.41C412.021 260.816 401.805 246.531 382.713 219.555Z" fill="#B28B67"/>
<path fill-rule="evenodd" clip-rule="evenodd" d="M333.243 163.995L326.583 163.681C314.063 179.166 312.318 212.889 303.386 218.422C294.941 223.652 281.76 221.212 266.013 217.666L262.657 228.524C278.178 241.624 308.909 250.528 319.869 241.945C337.391 228.223 336.761 186.971 333.243 163.995Z" fill="#DB2721"/>
<path fill-rule="evenodd" clip-rule="evenodd" d="M371.714 242.231C371.714 242.231 332.481 247.049 313.997 249.318C311.36 249.642 311.39 245.784 311.536 243.821C313.221 221.17 327.471 195.225 323.606 163.75L339.935 159.103C356.416 179.492 364.516 206.093 371.714 242.231Z" fill="#DDE3E9"/>
<path fill-rule="evenodd" clip-rule="evenodd" d="M334.523 262.83L386.477 256.451C384.137 244.19 379.896 231.441 374.721 219.137C389.085 238.852 400.846 252.872 410.003 261.196L421.811 257.349C408.101 210.121 381.167 177.328 341.009 158.971L340.819 158.994L334.417 159.78C334.417 159.78 321.353 238.724 334.523 262.83Z" fill="#FF4133"/>
<path fill-rule="evenodd" clip-rule="evenodd" d="M199.112 161.149C199.112 161.154 199.111 161.158 199.11 161.164C199.111 161.159 199.111 161.142 199.112 161.149Z" fill="#C5CFD6"/>
<path fill-rule="evenodd" clip-rule="evenodd" d="M199.11 161.156C199.11 161.157 199.11 161.159 199.11 161.161C199.109 161.157 199.114 161.142 199.11 161.156Z" fill="#C5CFD6"/>
<path fill-rule="evenodd" clip-rule="evenodd" d="M199.121 161.079C199.12 161.097 199.116 161.115 199.114 161.133C199.115 161.124 199.117 161.116 199.118 161.107C199.085 161.344 199.105 161.19 199.121 161.079Z" fill="#C5CFD6"/>
<path fill-rule="evenodd" clip-rule="evenodd" d="M199.115 161.134C199.114 161.142 199.113 161.151 199.111 161.159C199.099 161.212 199.115 161.134 199.115 161.134Z" fill="#C5CFD6"/>
<path fill-rule="evenodd" clip-rule="evenodd" d="M199.111 161.156C199.111 161.156 199.111 161.156 199.111 161.155C199.111 161.156 199.111 161.156 199.111 161.156Z" fill="#C5CFD6"/>
<path fill-rule="evenodd" clip-rule="evenodd" d="M199.108 161.163C199.106 161.175 199.122 161.119 199.108 161.163V161.163Z" fill="#C5CFD6"/>
<path fill-rule="evenodd" clip-rule="evenodd" d="M199.11 161.157L199.112 161.154C199.111 161.155 199.111 161.156 199.11 161.157Z" fill="#C5CFD6"/>
<rect x="146.361" y="126.963" width="85.3955" height="56.3611" rx="3.41582" transform="rotate(-14 146.361 126.963)" fill="#2B44FF"/>
<path fill-rule="evenodd" clip-rule="evenodd" d="M181.659 135.125L167.472 180.027L215.265 168.11L181.659 135.125Z" fill="black" fill-opacity="0.2"/>
<path fill-rule="evenodd" clip-rule="evenodd" d="M208.898 139.413L194.881 173.193L237.133 162.658L208.898 139.413Z" fill="black" fill-opacity="0.2"/>
<path fill-rule="evenodd" clip-rule="evenodd" d="M218.035 137.54C222.382 136.457 225.028 132.054 223.944 127.706C222.86 123.359 218.457 120.713 214.11 121.797C209.762 122.881 207.117 127.284 208.201 131.631C209.285 135.979 213.688 138.624 218.035 137.54Z" fill="white"/>
</g>
<defs>
<clipPath id="clip0_341_11825">
<rect width="455.158" height="421" fill="white"/>
</clipPath>
<clipPath id="clip1_341_11825">
<rect width="338.166" height="295.469" fill="white" transform="translate(58.9229)"/>
</clipPath>
<clipPath id="clip2_341_11825">
<rect width="310.84" height="241.669" fill="white" transform="translate(72.5863 36.7201)"/>
</clipPath>
<clipPath id="clip3_341_11825">
<rect width="59.7769" height="165.667" fill="white" transform="translate(323.649 112.722)"/>
</clipPath>
<clipPath id="clip4_341_11825">
<rect width="29.0345" height="134.925" fill="white" transform="translate(339.02 128.093)"/>
</clipPath>
<clipPath id="clip5_341_11825">
<rect width="42.6978" height="44.4057" fill="white" transform="translate(332.189 49.5294)"/>
</clipPath>
<clipPath id="clip6_341_11825">
<rect width="244.231" height="240.815" fill="white" transform="translate(72.5863 36.7201)"/>
</clipPath>
<clipPath id="clip7_341_11825">
<rect width="244.231" height="40.1359" fill="white" transform="translate(72.5863 36.7201)"/>
</clipPath>
<clipPath id="clip8_341_11825">
<rect width="194.702" height="16.2252" fill="white" transform="translate(80.2717 48.7609)"/>
</clipPath>
<clipPath id="clip9_341_11825">
<rect width="244.231" height="33.3043" fill="white" transform="translate(72.5861 83.6876)"/>
</clipPath>
<clipPath id="clip10_341_11825">
<rect width="194.702" height="13.6633" fill="white" transform="translate(80.2715 93.679)"/>
</clipPath>
<clipPath id="clip11_341_11825">
<rect width="244.231" height="33.3043" fill="white" transform="translate(72.5861 123.824)"/>
</clipPath>
<clipPath id="clip12_341_11825">
<rect width="194.702" height="13.6633" fill="white" transform="translate(80.2715 133.815)"/>
</clipPath>
<clipPath id="clip13_341_11825">
<rect width="244.231" height="33.3043" fill="white" transform="translate(72.5861 244.231)"/>
</clipPath>
<clipPath id="clip14_341_11825">
<rect width="194.702" height="13.6633" fill="white" transform="translate(80.2715 254.223)"/>
</clipPath>
<clipPath id="clip15_341_11825">
<rect width="244.231" height="33.3043" fill="white" transform="translate(72.5861 204.095)"/>
</clipPath>
<clipPath id="clip16_341_11825">
<rect width="194.702" height="13.6633" fill="white" transform="translate(80.2715 214.087)"/>
</clipPath>
<clipPath id="clip17_341_11825">
<rect width="244.231" height="33.3043" fill="white" transform="translate(72.5861 163.959)"/>
</clipPath>
<clipPath id="clip18_341_11825">
<rect width="194.702" height="13.6633" fill="white" transform="translate(80.2715 173.951)"/>
</clipPath>
</defs>
</svg>
