<svg width="25" height="25" viewBox="0 0 25 25" fill="none" xmlns="http://www.w3.org/2000/svg">
<g clip-path="url(#clip0_742_1503)">
<path d="M25 12.5007C24.9998 10.1118 24.3152 7.77307 23.0271 5.76125C21.7391 3.74943 19.9016 2.14883 17.7321 1.14893C15.5626 0.149042 13.1521 -0.208265 10.7859 0.119318C8.41964 0.446902 6.19686 1.44566 4.38063 2.99734C2.56439 4.54902 1.23077 6.58864 0.537684 8.87473C-0.155398 11.1608 -0.178907 13.5976 0.46989 15.8967C1.11869 18.1957 2.41263 20.2607 4.19855 21.8472C5.98448 23.4337 8.18758 24.4752 10.547 24.8484V16.1135H7.37309V12.5007H10.547V9.74498C10.547 6.61194 12.4131 4.8815 15.2684 4.8815C16.2058 4.89453 17.1409 4.97624 18.0664 5.12598V8.20178H16.49C16.2214 8.16615 15.9483 8.19139 15.6908 8.27563C15.4333 8.35987 15.198 8.50095 15.0024 8.68842C14.8067 8.8759 14.6558 9.10496 14.5607 9.35867C14.4656 9.61238 14.4288 9.88423 14.453 10.1541V12.4993H17.923L17.3683 16.1121H14.4558V24.847C17.3951 24.3809 20.0719 22.8815 22.0047 20.6184C23.9374 18.3553 24.9996 15.4769 25 12.5007Z" fill="white"/>
<path d="M17.3656 16.1132L17.9202 12.5004H14.4531V10.1552C14.4289 9.8853 14.4657 9.61346 14.5608 9.35975C14.6559 9.10604 14.8069 8.87697 15.0025 8.6895C15.1981 8.50202 15.4334 8.36094 15.6909 8.27671C15.9484 8.19247 16.2216 8.16723 16.4901 8.20285H18.0644V5.12705C17.1389 4.97732 16.2038 4.8956 15.2664 4.88257C12.4111 4.88257 10.545 6.61302 10.545 9.74606V12.5018H7.37109V16.1146H10.545V24.8495C11.8391 25.0521 13.1569 25.0521 14.451 24.8495V16.1132H17.3656Z" fill="#2E303D"/>
</g>
<defs>
<clipPath id="clip0_742_1503">
<rect width="25" height="25" fill="white"/>
</clipPath>
</defs>
</svg>
