<svg width="179" height="157" viewBox="0 0 179 157" fill="none" xmlns="http://www.w3.org/2000/svg">
<g clip-path="url(#clip0_465_10526)">
<path d="M146.227 127.62C143.181 130.815 140.299 132.876 138.022 134.504C111.256 153.642 79.5846 148.063 72.8535 146.701C62.9138 144.689 43.7005 140.801 29.8096 124.522C8.79401 99.8943 12.0664 61.0938 28.3676 35.4807C31.3492 30.7961 47.0997 4.79311 79.1124 0.62311C98.4862 -1.90086 121.07 3.18933 137.424 16.8434C171.753 45.5043 169.31 103.404 146.227 127.62Z" fill="white"/>
<path d="M0.122209 13.3159C-0.263092 12.8356 0.328915 12.1147 0.976402 12.2712C7.55166 13.8592 24.4326 19.9448 31.1612 41.3621C39.6032 68.2335 50.0808 74.5356 60.3424 76.5478C60.3424 76.5478 48.6641 78.8466 37.6612 72.627C10.6469 57.3565 6.97329 21.8573 0.122209 13.3159Z" fill="#91B3FA"/>
<g style="mix-blend-mode:soft-light">
<path d="M7.48517 19.4713C9.41567 21.9936 11.2858 24.5551 13.0416 27.1862C14.8136 29.8068 16.4886 32.4832 18.0667 35.2154C19.6304 37.953 21.1337 40.7228 22.4971 43.5603C23.8752 46.3907 25.1105 49.2859 26.3389 52.1979C27.5854 55.1001 28.822 58.0317 30.4094 60.8229C31.9904 63.6095 33.9868 66.2303 36.4962 68.3851C37.1224 68.9213 37.7633 69.4489 38.4365 69.9327C39.0987 70.4291 39.7886 70.8963 40.4891 71.3511C41.9111 72.2651 43.3992 73.0727 44.9412 73.7671C48.0644 75.1611 51.4748 76.0949 54.9786 76.5927C55.1595 76.6168 55.3432 76.5774 55.4981 76.4813C55.6531 76.3851 55.7696 76.2382 55.8277 76.0657C55.8515 75.9881 55.858 75.9061 55.8466 75.8257C55.8352 75.7453 55.8062 75.6683 55.7617 75.6003C55.7172 75.5322 55.6583 75.4748 55.589 75.4319C55.5198 75.3891 55.4419 75.3619 55.361 75.3524H55.3585C54.5128 75.2088 53.6712 75.0565 52.8442 74.8695C52.4282 74.7821 52.0195 74.6777 51.608 74.5806C51.2027 74.469 50.7907 74.3721 50.3911 74.2488C45.6828 72.8864 41.3244 70.5287 37.6131 67.3361C36.4332 66.3036 35.3436 65.1728 34.3562 63.9561C33.3816 62.7409 32.5021 61.453 31.7255 60.1035C30.1598 57.4065 28.9082 54.5165 27.6376 51.6256C26.3624 48.7355 25.0584 45.8414 23.6176 43.0147C22.9019 41.5993 22.1569 40.199 21.3825 38.8139C21.0002 38.119 20.6021 37.4326 20.2056 36.7454C19.8012 36.0625 19.3919 35.3826 18.9775 34.7057C17.311 32.003 15.5483 29.3597 13.6892 26.776C11.8151 24.2042 9.86062 21.6866 7.79328 19.253C7.75958 19.2191 7.71442 19.199 7.6666 19.1964C7.61879 19.1939 7.57174 19.2092 7.53462 19.2394C7.51596 19.2512 7.49985 19.2667 7.48724 19.2848C7.47463 19.303 7.46577 19.3234 7.46116 19.345C7.45656 19.3666 7.45632 19.3889 7.46044 19.4106C7.46456 19.4323 7.47297 19.4529 7.48517 19.4713Z" fill="white"/>
</g>
<path d="M42.0684 69.6769C42.0008 69.8824 41.8836 70.0682 41.727 70.2179C41.5703 70.3676 41.3792 70.4766 41.1703 70.5353C40.9615 70.594 40.7413 70.6006 40.5293 70.5546C40.3173 70.5085 40.1199 70.4111 39.9545 70.2711C35.9963 66.9359 25.6608 56.498 26.0092 38.6693C26.3035 23.6141 25.0274 15.4226 24.1894 11.744C24.1509 11.5742 24.1671 11.3967 24.2357 11.2366C24.3043 11.0766 24.4219 10.9422 24.5716 10.8527C24.7214 10.7631 24.8957 10.723 25.0697 10.7379C25.2437 10.7529 25.4085 10.8222 25.5407 10.9359C32.2281 16.6838 52.5249 37.3952 42.0684 69.6769Z" fill="#BDD0FB"/>
<g style="mix-blend-mode:soft-light">
<path d="M40.797 69.729C40.753 69.7604 40.7025 69.7816 40.6493 69.7913C40.596 69.8009 40.5413 69.7987 40.489 69.7848C40.4367 69.7709 40.3881 69.7457 40.3467 69.7109C40.3054 69.6762 40.2722 69.6327 40.2496 69.5837C40.1543 69.3755 30.7081 48.5273 30.1682 27.5755C30.1651 27.5265 30.172 27.4773 30.1884 27.431C30.2048 27.3846 30.2305 27.342 30.2638 27.3058C30.2971 27.2696 30.3374 27.2404 30.3823 27.22C30.4272 27.1996 30.4757 27.1885 30.525 27.1873C30.5743 27.186 30.6234 27.1947 30.6693 27.2128C30.7151 27.2308 30.7569 27.258 30.792 27.2925C30.8271 27.327 30.8548 27.3682 30.8736 27.4137C30.8924 27.4591 30.9017 27.5079 30.9011 27.557C31.437 48.3563 40.8217 69.0735 40.9164 69.2803C40.9518 69.3573 40.9592 69.4441 40.9374 69.526C40.9156 69.6078 40.866 69.6796 40.797 69.729Z" fill="white"/>
</g>
<path d="M78.6342 118.141L75.3689 147.324H113.252L108.318 118.141H78.6342Z" fill="#ADC0E0"/>
<path d="M14.9966 46.2414V113.078C14.9965 115.721 16.0327 118.261 17.8844 120.154C19.736 122.048 22.2567 123.146 24.9089 123.214C49.4061 123.843 135.086 125.369 158.405 125.027C160.334 124.998 162.177 124.228 163.551 122.877C164.924 121.527 165.721 119.7 165.775 117.779C166.225 102.252 166.956 64.9146 164.253 47.5804C163.978 45.8113 163.091 44.1936 161.746 43.007C160.401 41.8204 158.682 41.1396 156.886 41.0823C136.361 40.4279 45.535 38.3502 22.2262 38.8718C20.2937 38.915 18.455 39.7105 17.1037 41.0879C15.7525 42.4653 14.9961 44.3152 14.9966 46.2414Z" fill="#ADC0E0"/>
<path d="M19.2051 45.9161V109.415C19.2051 110.958 19.8142 112.439 20.9008 113.538C21.9873 114.637 23.4642 115.266 25.0122 115.289L155.051 116.89C155.809 116.901 156.563 116.762 157.267 116.481C157.972 116.201 158.614 115.783 159.155 115.253C159.697 114.724 160.127 114.092 160.422 113.396C160.717 112.699 160.871 111.951 160.874 111.195L161.091 48.2631C161.095 47.1691 160.669 46.1171 159.904 45.3327C159.138 44.5484 158.095 44.0942 156.997 44.0676L23.8625 41.3871C23.2563 41.3723 22.6532 41.4785 22.0888 41.6995C21.5244 41.9204 21.0101 42.2517 20.5761 42.6737C20.1421 43.0957 19.7973 43.6 19.5618 44.1568C19.3263 44.7137 19.2051 45.3118 19.2051 45.9161Z" fill="#D4DEFB"/>
<path d="M121.412 153.295H65.9673C64.461 153.295 63.3299 152.227 63.6211 151.079L64.3326 148.275C64.5466 147.432 65.4775 146.813 66.5831 146.778L120.034 145.116C121.189 145.08 122.212 145.691 122.464 146.568L123.746 151.033C124.079 152.194 122.943 153.295 121.412 153.295Z" fill="#ADC0E0"/>
<path d="M39.086 53.8968H24.6314C24.1979 53.8936 23.7832 53.7197 23.4778 53.413C23.1724 53.1064 23.001 52.6919 23.001 52.2598C23.001 51.8278 23.1724 51.4132 23.4778 51.1066C23.7832 50.8 24.1979 50.626 24.6314 50.6228H39.086C39.5195 50.626 39.9342 50.8 40.2396 51.1066C40.5451 51.4132 40.7164 51.8278 40.7164 52.2598C40.7164 52.6919 40.5451 53.1064 40.2396 53.413C39.9342 53.7197 39.5195 53.8936 39.086 53.8968Z" fill="#F7F7FA"/>
<path d="M136.787 63.3765H153.687C154.667 63.3765 155.46 65.822 155.46 69.4088V105.99C155.46 109.578 154.667 112.485 153.687 112.485L136.787 112.115C135.808 112.115 135.014 109.577 135.014 105.99V69.4088C135.014 65.8219 135.808 63.3765 136.787 63.3765Z" fill="#F7F7FA"/>
<path d="M153.887 60.1902H25.7944C25.0746 60.1902 24.3844 59.9053 23.8754 59.3981C23.3665 58.891 23.0806 58.2031 23.0806 57.4859V47.5559C23.0806 47.195 23.153 46.8378 23.2938 46.5052C23.4345 46.1727 23.6405 45.8716 23.8998 45.6196C24.1591 45.3677 24.4664 45.17 24.8036 45.0382C25.1408 44.9065 25.501 44.8433 25.863 44.8524L153.956 48.1153C154.664 48.1331 155.336 48.4258 155.831 48.9308C156.325 49.4359 156.601 50.1134 156.601 50.8188V57.4859C156.601 58.2031 156.315 58.891 155.806 59.3981C155.298 59.9053 154.607 60.1902 153.887 60.1902Z" fill="#F7F7FA"/>
<path d="M129.523 112.049L87.8342 111.402C87.2753 111.402 86.7394 111.181 86.3442 110.787C85.949 110.393 85.7271 109.859 85.7271 109.302V65.7783C85.7271 65.2214 85.9491 64.6873 86.3442 64.2935C86.7394 63.8997 87.2753 63.6785 87.8342 63.6785H129.523C130.082 63.6785 130.618 63.8997 131.013 64.2935C131.408 64.6873 131.63 65.2214 131.63 65.7783V109.949C131.63 110.506 131.408 111.04 131.013 111.434C130.618 111.828 130.082 112.049 129.523 112.049Z" fill="#F7F7FA"/>
<path d="M79.8092 63.1409H25.7026C24.3683 63.1409 23.2866 64.2188 23.2866 65.5484V108.882C23.2866 110.212 24.3683 111.29 25.7026 111.29H79.8092C81.1435 111.29 82.2252 110.212 82.2252 108.882V65.5484C82.2252 64.2188 81.1435 63.1409 79.8092 63.1409Z" fill="#F7F7FA"/>
<path d="M106.343 57.1502L145.233 56.8027C145.415 56.801 145.594 56.8353 145.762 56.9035C145.93 56.9717 146.082 57.0725 146.211 57.1999C146.339 57.3274 146.441 57.479 146.51 57.6459C146.579 57.8129 146.614 57.9918 146.613 58.1724L146.442 87.9109C146.441 88.0924 146.404 88.2719 146.333 88.4389C146.261 88.6058 146.157 88.7568 146.026 88.8829C145.895 89.0091 145.74 89.1078 145.57 89.1733C145.4 89.2389 145.218 89.2699 145.036 89.2645C138.005 89.0556 106.787 88.1338 105.408 88.1913C104.047 88.2481 104.787 64.3587 104.99 58.4643C105.002 58.1137 105.15 57.7812 105.402 57.5364C105.654 57.2915 105.991 57.1532 106.343 57.1502Z" fill="url(#paint0_linear_465_10526)"/>
<path d="M111.037 84.3202H136.53C136.711 84.3202 136.889 84.2726 137.045 84.1822C137.201 84.0918 137.331 83.9618 137.421 83.8054C137.511 83.649 137.557 83.4717 137.556 83.2915C137.555 83.1113 137.506 82.9346 137.415 82.7793L127.322 65.6816C127.227 65.5204 127.089 65.3883 126.924 65.2997C126.758 65.211 126.572 65.1693 126.384 65.179C126.197 65.1887 126.016 65.2494 125.861 65.3546C125.705 65.4598 125.582 65.6054 125.504 65.7756L120.631 76.4169C120.564 76.5637 120.463 76.6925 120.336 76.7929C120.209 76.8932 120.06 76.9623 119.902 76.9944C119.743 77.0265 119.579 77.0208 119.423 76.9776C119.267 76.9345 119.123 76.8551 119.004 76.7461L117.033 74.9453C116.925 74.8468 116.797 74.7724 116.658 74.7271C116.519 74.6818 116.372 74.6667 116.226 74.6828C116.081 74.6989 115.94 74.7458 115.815 74.8204C115.689 74.895 115.581 74.9956 115.497 75.1153L110.194 82.7143C110.087 82.8677 110.025 83.0472 110.013 83.2336C110.001 83.4199 110.041 83.6059 110.128 83.7714C110.215 83.9369 110.345 84.0755 110.505 84.1722C110.666 84.269 110.849 84.3202 111.037 84.3202Z" fill="white"/>
<path d="M137.586 68.5394C139.456 67.7676 140.344 65.6313 139.57 63.7679C138.795 61.9044 136.651 61.0196 134.782 61.7914C132.912 62.5633 132.024 64.6996 132.798 66.563C133.573 68.4264 135.717 69.3112 137.586 68.5394Z" fill="white"/>
<path d="M148.04 88.7196L148.002 87.4768L149.306 84.8973C149.424 84.6646 149.485 84.4078 149.486 84.1472C149.487 83.8866 149.427 83.6294 149.311 83.3959L147.834 80.4248C147.834 80.4248 146.981 86.8737 146.757 87.4097C146.533 87.9458 147.365 88.9087 147.365 88.9087L148.04 88.7196Z" fill="url(#paint1_linear_465_10526)"/>
<path d="M144.727 95.5466C144.727 95.5466 144.088 93.6738 143.928 92.5031C143.768 91.3325 144.358 88.7051 144.866 87.9662C145.373 87.2273 145.458 89.0387 145.686 89.8893C145.915 90.7398 145.528 91.9548 145.528 91.9548L145.761 93.5465L144.727 95.5466Z" fill="url(#paint2_linear_465_10526)"/>
<path d="M173.414 103.176C172.437 99.5779 169.421 96.6213 166.059 95.8746C165.914 95.8395 165.776 95.7758 165.655 95.6872C165.535 95.5987 165.432 95.4871 165.355 95.3589C165.278 95.2308 165.227 95.0886 165.205 94.9406C165.184 94.7927 165.192 94.6419 165.229 94.4971L165.232 94.4843C165.719 92.3917 164.373 90.7245 162.343 90.2552C160.313 89.7859 158.368 90.6925 157.881 92.7851C157.552 94.1975 157.973 95.7861 158.905 96.8149C159.093 97.0154 159.202 97.2777 159.21 97.5524C159.218 97.8271 159.124 98.0951 158.948 98.3061C156.899 100.697 156.066 104.347 156.952 107.612C158.257 112.421 162.794 114.569 167.34 113.344C171.885 112.119 174.718 107.985 173.414 103.176Z" fill="#132145"/>
<path d="M172 107.765L171.912 107.704C172.725 106.553 172.83 104.891 172.184 103.368C171.672 102.158 170.754 101.051 169.296 99.8857C168.753 99.4512 168.178 99.039 167.621 98.6406C166.95 98.1606 166.257 97.6645 165.615 97.125C165.037 96.6396 164.429 96.0373 164.301 95.2494C164.238 94.8567 164.297 94.4384 164.355 94.0338C164.445 93.4007 164.53 92.8026 164.157 92.3447L164.241 92.277C164.643 92.7712 164.55 93.4208 164.461 94.0489C164.405 94.4455 164.346 94.8557 164.407 95.2323C164.529 95.9855 165.121 96.5701 165.684 97.0428C166.323 97.5795 167.015 98.0745 167.683 98.5533C168.241 98.9528 168.818 99.3657 169.364 99.8014C170.836 100.979 171.763 102.098 172.283 103.325C172.944 104.883 172.835 106.584 172 107.765Z" fill="#91B3FA"/>
<path d="M169.839 108.46L169.737 108.423C170.291 106.897 170.129 105.022 169.292 103.278C168.463 101.549 167.107 100.14 166.019 99.1051L166.094 99.0273C167.188 100.068 168.552 101.487 169.389 103.231C170.239 105.001 170.403 106.907 169.839 108.46Z" fill="#91B3FA"/>
<path d="M148.002 87.4768C148.002 87.4768 151.967 98.2476 158.723 101.614C158.723 101.614 156.474 105.27 155.301 105.492C155.301 105.492 148.084 96.2871 147.348 88.746L148.002 87.4768Z" fill="url(#paint3_linear_465_10526)"/>
<path d="M175.172 152.267L175.371 153.9C175.579 154.677 176.582 156.632 177.869 156.505C178.661 156.427 178.756 154.121 178.646 153.775C178.445 153.145 178.077 152.198 177.546 151.641H175.728C175.649 151.641 175.57 151.658 175.498 151.69C175.426 151.723 175.361 151.77 175.309 151.829C175.256 151.888 175.217 151.958 175.193 152.033C175.169 152.109 175.162 152.188 175.172 152.267Z" fill="#436DE1"/>
<path d="M160.93 133.132L160.623 134.931C160.623 134.931 161.651 145.305 161.834 149.455C161.862 150.105 161.694 150.749 161.351 151.303L159.564 154.195L164.106 151.525L164.197 150.972L163.453 149.953L164.427 138.332C164.484 137.649 164.343 136.965 164.02 136.36L163.081 134.601L160.93 133.132Z" fill="url(#paint4_linear_465_10526)"/>
<path d="M159.264 154.614H160.714C160.848 154.614 160.98 154.584 161.1 154.525C161.22 154.466 161.325 154.381 161.406 154.276C161.858 153.69 162.794 152.549 163.242 152.519C163.845 152.479 163.768 154.614 163.768 154.614H164.105L164.533 151.961C164.586 151.635 164.534 151.302 164.386 151.007C164.237 150.713 164 150.472 163.706 150.319C163.706 150.319 163.569 151.335 162.822 151.784C162.075 152.233 159.782 153.841 159.782 153.841C159.586 153.818 159.388 153.823 159.193 153.856C158.736 153.939 158.8 154.614 159.264 154.614Z" fill="#436DE1"/>
<path d="M167.151 133.986C167.151 133.986 173.172 145.368 174.129 147.967C175.086 150.565 175.421 152.733 175.434 152.938C175.454 153.259 175.855 153.567 176.958 153.567C177.528 153.567 177.807 153.339 177.943 153.119C178 153.026 178.032 152.92 178.036 152.812C178.04 152.703 178.017 152.595 177.968 152.498C177.619 151.795 176.514 149.551 176.105 148.533C175.616 147.317 174.565 141.809 173.988 139.893C173.412 137.978 172.76 135.9 170.249 133.987C170.249 133.986 168.525 132.304 167.151 133.986Z" fill="url(#paint5_linear_465_10526)"/>
<path d="M163.347 115.337C162.465 111.613 163.353 108.808 164.284 107.079C164.462 106.753 164.572 106.395 164.609 106.026C164.646 105.657 164.609 105.284 164.499 104.93C164.39 104.575 164.211 104.246 163.973 103.961C163.734 103.676 163.442 103.442 163.111 103.271C161.713 102.562 160.241 102.007 158.723 101.614C158.723 101.614 154.406 104.759 154.919 107.22C155.219 108.662 157.953 115.861 157.953 115.861C157.953 115.861 160.48 117.053 163.347 115.337Z" fill="url(#paint6_linear_465_10526)"/>
<path d="M166.791 118.584C166.159 116.686 163.347 115.337 163.347 115.337C160.48 117.053 157.952 115.861 157.952 115.861C157.952 115.861 157.385 118.02 157.777 120.027C158.168 122.034 160.623 134.93 160.623 134.93C164.491 135.711 170.44 134.145 170.44 134.145C167.976 129.786 167.423 120.482 166.791 118.584Z" fill="#436DE1"/>
<path d="M161.544 97.28L162.807 102.932C162.928 103.43 162.473 103.348 161.968 103.254C161.14 103.098 160.074 102.778 159.718 102.137C159.683 102.07 159.661 101.998 159.653 101.924L159.11 98.0047C159.089 97.8534 159.119 97.6995 159.193 97.5661C159.268 97.4326 159.384 97.327 159.524 97.2651L160.571 96.8028C160.665 96.761 160.768 96.7403 160.872 96.7423C160.975 96.7443 161.077 96.769 161.17 96.8145C161.262 96.86 161.344 96.9253 161.409 97.0057C161.474 97.0861 161.52 97.1798 161.544 97.28Z" fill="url(#paint7_linear_465_10526)"/>
<path d="M145.761 93.5469C145.761 93.5469 149.085 105.052 162.487 103.971C162.69 103.954 162.895 103.977 163.09 104.039C163.285 104.101 163.465 104.201 163.621 104.333C163.777 104.465 163.905 104.626 163.998 104.807C164.091 104.988 164.148 105.186 164.164 105.389L164.2 105.851C164.223 106.143 164.184 106.436 164.084 106.711C163.984 106.987 163.827 107.238 163.623 107.448C163.418 107.658 163.171 107.822 162.898 107.929C162.625 108.036 162.332 108.084 162.038 108.07C157.581 107.845 148.008 106.101 144.727 95.5465L145.761 93.5469Z" fill="url(#paint8_linear_465_10526)"/>
<path d="M158.955 92.6172C158.955 92.6172 155.762 97.2524 157.748 98.5439C159.734 99.8355 162.006 96.5414 162.006 96.5414C162.006 96.5414 162.72 94.0238 161.908 93.1896C161.096 92.3554 158.955 92.6172 158.955 92.6172Z" fill="url(#paint9_linear_465_10526)"/>
<path d="M160.295 91.4925C160.295 91.4925 158.905 91.8482 158.722 92.481C158.538 93.1139 160.724 93.6564 161.333 93.6737L161.872 96.2032C161.872 96.2032 163.278 93.7877 162.677 92.4191C162.076 91.0505 160.295 91.4925 160.295 91.4925Z" fill="#132145"/>
<path d="M161.365 96.2167C161.365 96.2167 162.613 94.7195 163.139 95.6704C163.665 96.6213 162.022 97.3734 161.439 96.9127L161.365 96.2167Z" fill="url(#paint10_linear_465_10526)"/>
<path d="M45.4256 81.1085C54.3616 81.1085 61.6057 73.8897 61.6057 64.9848C61.6057 56.08 54.3616 48.8612 45.4256 48.8612C36.4897 48.8612 29.2456 56.08 29.2456 64.9848C29.2456 73.8897 36.4897 81.1085 45.4256 81.1085Z" fill="#91B3FA"/>
<path d="M36.8718 65.0113L41.5478 62.5814V63.6169C41.5484 63.6926 41.5279 63.767 41.4886 63.8318C41.4402 63.9044 41.3728 63.9624 41.2937 63.9996L39.1506 65.0939C39.0585 65.1416 38.9627 65.1817 38.8642 65.2141C38.7639 65.2476 38.6567 65.278 38.5425 65.3053C38.6565 65.333 38.7639 65.3633 38.8642 65.3966C38.9627 65.4291 39.0585 65.4693 39.1506 65.5168L41.2937 66.617C41.3728 66.6542 41.4402 66.7122 41.4886 66.7848C41.5279 66.8494 41.5484 66.9237 41.5478 66.9993V68.0348L36.8718 65.5987V65.0113Z" fill="white"/>
<path d="M44.1871 69.2885C44.1547 69.3739 44.1089 69.4536 44.0514 69.5246C43.9977 69.59 43.9339 69.6466 43.8625 69.6922C43.7929 69.7366 43.7174 69.7712 43.6382 69.795C43.5637 69.818 43.4861 69.83 43.408 69.8304H42.7937L46.2418 61.0403C46.2989 60.8884 46.3995 60.7566 46.5311 60.6612C46.6649 60.5705 46.824 60.5241 46.9857 60.5286H47.6057L44.1871 69.2885Z" fill="white"/>
<path d="M48.822 68.0362V67.0007C48.8213 66.9251 48.8416 66.8509 48.8809 66.7862C48.9292 66.7136 48.9966 66.6555 49.0757 66.6184L51.2188 65.5182C51.4128 65.4247 51.6168 65.3536 51.827 65.3064C51.7128 65.279 51.6055 65.2486 51.5052 65.2152C51.4067 65.1829 51.3109 65.1427 51.2188 65.095L49.0757 64.0007C48.9966 63.9635 48.9292 63.9055 48.8809 63.8329C48.8417 63.7681 48.8213 63.6937 48.822 63.618V62.5814L53.498 65.0113V65.5996L48.822 68.0362Z" fill="white"/>
</g>
<defs>
<linearGradient id="paint0_linear_465_10526" x1="102.675" y1="89.3323" x2="146.615" y2="58.3659" gradientUnits="userSpaceOnUse">
<stop stop-color="#FF928E"/>
<stop offset="1" stop-color="#FE7062"/>
</linearGradient>
<linearGradient id="paint1_linear_465_10526" x1="147.321" y1="84.0477" x2="158.768" y2="109.984" gradientUnits="userSpaceOnUse">
<stop stop-color="#FEBBBA"/>
<stop offset="1" stop-color="#FF928E"/>
</linearGradient>
<linearGradient id="paint2_linear_465_10526" x1="3047.88" y1="7855.77" x2="2766.35" y2="9518.37" gradientUnits="userSpaceOnUse">
<stop stop-color="#FEBBBA"/>
<stop offset="1" stop-color="#FF928E"/>
</linearGradient>
<linearGradient id="paint3_linear_465_10526" x1="18234.6" y1="16447" x2="21073.3" y2="20494.1" gradientUnits="userSpaceOnUse">
<stop stop-color="#FEBBBA"/>
<stop offset="1" stop-color="#FF928E"/>
</linearGradient>
<linearGradient id="paint4_linear_465_10526" x1="8586.14" y1="38153.5" x2="12971.5" y2="26290.5" gradientUnits="userSpaceOnUse">
<stop stop-color="#FEBBBA"/>
<stop offset="1" stop-color="#FF928E"/>
</linearGradient>
<linearGradient id="paint5_linear_465_10526" x1="20172.6" y1="37018.1" x2="22200.6" y2="24325.5" gradientUnits="userSpaceOnUse">
<stop stop-color="#FEBBBA"/>
<stop offset="1" stop-color="#FF928E"/>
</linearGradient>
<linearGradient id="paint6_linear_465_10526" x1="17868.1" y1="15523" x2="15333.5" y2="17879.4" gradientUnits="userSpaceOnUse">
<stop stop-color="#FF928E"/>
<stop offset="1" stop-color="#FE7062"/>
</linearGradient>
<linearGradient id="paint7_linear_465_10526" x1="6571.75" y1="7855.07" x2="6686.17" y2="7381.64" gradientUnits="userSpaceOnUse">
<stop stop-color="#FEBBBA"/>
<stop offset="1" stop-color="#FF928E"/>
</linearGradient>
<linearGradient id="paint8_linear_465_10526" x1="32645" y1="14675.5" x2="32540.9" y2="18111.6" gradientUnits="userSpaceOnUse">
<stop stop-color="#FEBBBA"/>
<stop offset="1" stop-color="#FF928E"/>
</linearGradient>
<linearGradient id="paint9_linear_465_10526" x1="-36549.6" y1="10745.4" x2="-36240.2" y2="11255.7" gradientUnits="userSpaceOnUse">
<stop stop-color="#FEBBBA"/>
<stop offset="1" stop-color="#FF928E"/>
</linearGradient>
<linearGradient id="paint10_linear_465_10526" x1="-12080.5" y1="2184.64" x2="-12008.3" y2="2353.99" gradientUnits="userSpaceOnUse">
<stop stop-color="#FEBBBA"/>
<stop offset="1" stop-color="#FF928E"/>
</linearGradient>
<clipPath id="clip0_465_10526">
<rect width="178.684" height="156.511" fill="white"/>
</clipPath>
</defs>
</svg>
