<svg width="178" height="172" viewBox="0 0 178 172" fill="none" xmlns="http://www.w3.org/2000/svg">
<path d="M139.739 133.216C135.613 137.447 134.748 138.056 131.922 139.934C104.356 158.243 64.4701 153.817 54.7279 152.014C39.01 149.104 31.2909 148.076 19.8913 137.831C-6.01224 114.551 -4.75259 65.9887 15.0411 35.906C17.3881 32.3391 36.8058 4.66287 68.3847 0.556601C69.157 0.45617 105.741 -4.34935 130.425 16.2221C136.049 20.9246 140.934 26.4379 144.918 32.5789C164.198 62.1994 164.259 108.075 139.739 133.216Z" fill="white"/>
<path d="M146.505 15.8505C146.701 15.1688 147.669 15.1484 147.905 15.8176C150.301 22.6124 154.704 41.5267 139.937 62.9636C121.411 89.8593 121.947 103.447 126.092 113.71C126.092 113.71 117.383 105.388 116.473 91.4107C114.239 57.0941 143.01 27.9697 146.505 15.8505Z" fill="#91B3FA"/>
<path d="M145.38 26.6622C144.295 30.1618 143.141 33.6383 141.86 37.0678C140.599 40.5035 139.233 43.8969 137.762 47.2482C136.279 50.5911 134.733 53.9056 133.048 57.15C131.377 60.4018 129.568 63.5786 127.741 66.7617C125.932 69.9533 124.092 73.1582 122.576 76.5604C121.06 79.9539 119.927 83.5819 119.494 87.3084C119.387 88.2377 119.297 89.1724 119.263 90.1032C119.211 91.0336 119.201 91.9667 119.208 92.8994C119.255 98.5239 120.539 104.07 122.971 109.148C123.05 109.317 123.193 109.448 123.368 109.513C123.544 109.579 123.738 109.572 123.909 109.496C124.079 109.42 124.213 109.28 124.281 109.106C124.348 108.932 124.344 108.739 124.27 108.568L124.269 108.566C123.908 107.737 123.557 106.904 123.244 106.058C123.081 105.638 122.937 105.212 122.786 104.788C122.65 104.359 122.497 103.935 122.375 103.503C121.856 101.782 121.463 100.026 121.198 98.2492C120.655 94.7034 120.641 91.0584 121.048 87.4977C121.271 85.719 121.629 83.9595 122.118 82.2342C122.617 80.5045 123.232 78.8098 123.958 77.1615C125.405 73.8466 127.2 70.6595 128.985 67.4552C130.767 64.248 132.535 61.0128 134.167 57.7103C134.987 56.0615 135.777 54.3986 136.537 52.7216C136.922 51.8855 137.29 51.0421 137.66 50.1997C138.022 49.3536 138.379 48.5054 138.729 47.655C140.123 44.2496 141.41 40.8052 142.59 37.3218C143.75 33.8345 144.818 30.3178 145.747 26.7659C145.759 26.7181 145.752 26.6674 145.727 26.6247C145.702 26.582 145.662 26.5506 145.614 26.5371C145.566 26.5237 145.515 26.5292 145.471 26.5526C145.428 26.5759 145.395 26.6153 145.38 26.6623V26.6622Z" fill="#BDD0FB"/>
<path d="M113.037 88.7341C112.825 88.9505 112.564 89.1118 112.275 89.2039C111.986 89.2959 111.678 89.3158 111.38 89.2618C111.081 89.2078 110.801 89.0816 110.563 88.8943C110.325 88.7069 110.137 88.4643 110.016 88.1876C107.099 81.5878 100.55 62.1861 111.976 40.0455C121.624 21.3486 125.07 10.2986 126.284 5.17433C126.541 4.09088 128.039 3.96322 128.48 4.98675C133.337 16.279 146.066 54.647 113.037 88.7341Z" fill="#BDD0FB"/>
<path d="M111.409 88.0231C111.334 88.0355 111.258 88.0314 111.185 88.0109C111.112 87.9905 111.045 87.9543 110.988 87.905C110.93 87.8556 110.885 87.7943 110.854 87.7254C110.824 87.6565 110.809 87.5818 110.811 87.5065C110.819 87.1872 111.803 55.2763 124.038 28.6772C124.066 28.6163 124.106 28.5614 124.155 28.5158C124.204 28.4702 124.262 28.4347 124.325 28.4113C124.388 28.3879 124.456 28.3772 124.523 28.3796C124.59 28.382 124.656 28.3976 124.718 28.4255C124.779 28.4534 124.834 28.493 124.88 28.5421C124.926 28.5911 124.961 28.6487 124.985 28.7115C125.008 28.7743 125.019 28.8411 125.017 28.908C125.014 28.975 124.999 29.0408 124.971 29.1017C112.825 55.5074 111.845 87.2164 111.836 87.5332C111.833 87.6515 111.789 87.765 111.711 87.8544C111.633 87.9437 111.526 88.0034 111.409 88.0231Z" fill="url(#paint0_linear_465_10568)"/>
<path d="M10.9487 136.792C10.951 137.45 11.2147 138.08 11.6824 138.544C12.15 139.009 12.7836 139.271 13.4446 139.272H148.411C149.072 139.271 149.706 139.009 150.173 138.544C150.641 138.08 150.905 137.45 150.907 136.792L152.03 59.6388C152.03 58.2746 150.414 55.6114 147.453 55.8115L15.5494 52.4165C14.6975 52.3941 13.85 52.5442 13.0582 52.8576C12.2664 53.171 11.5469 53.6411 10.9433 54.2396C10.3398 54.838 9.8648 55.5522 9.54718 56.3388C9.22956 57.1254 9.07595 57.968 9.09568 58.8154L10.9487 136.792Z" fill="#D4DEFB"/>
<path d="M24.7085 132.006C24.7085 133.217 25.6484 134.208 26.7973 134.208H141.252C142.401 134.208 143.341 133.217 143.341 132.006L144.278 66.3599C144.168 62.4095 140.882 60.9898 138.889 61.0735L27.0571 57.9114C26.5215 57.8992 25.9895 57.9999 25.496 58.207C25.0024 58.4141 24.5585 58.7228 24.1936 59.1128C23.4272 59.9289 23.0147 61.0124 23.0453 62.1287L24.7085 132.006Z" fill="#F7F7FA"/>
<path d="M0.314499 145.677L158.805 145.677C158.979 145.677 159.12 145.537 159.12 145.364V139.211C159.12 139.038 158.979 138.898 158.805 138.898L0.314499 138.898C0.140778 138.898 -4.57764e-05 139.038 -4.57764e-05 139.211V145.364C-4.57764e-05 145.537 0.140778 145.677 0.314499 145.677Z" fill="#D4DEFB"/>
<path d="M99.5982 18.9982L19.5131 18.5105C18.8896 18.5066 18.2719 18.6294 17.6977 18.8712C17.1235 19.113 16.605 19.4688 16.1738 19.9168C15.7426 20.3648 15.4078 20.8956 15.1899 21.4767C14.972 22.0578 14.8756 22.677 14.9065 23.2965L20.4158 136.762L109.536 136.856L114.484 35.3564L99.5982 18.9982Z" fill="#ADC0E0"/>
<path d="M102.928 34.8715C102.309 34.8498 101.702 34.7039 101.141 34.4423C100.581 34.1808 100.08 33.8091 99.6681 33.3497C99.2561 32.8904 98.942 32.3527 98.7445 31.7693C98.547 31.1859 98.4704 30.5687 98.5191 29.9551L99.3776 19.1473L114.499 35.2899L102.928 34.8715Z" fill="#436DE1"/>
<path opacity="0.78" d="M57.1598 40.6028C64.349 40.5916 91.9478 40.504 98.917 40.4817C99.7961 40.479 100.494 41.3134 100.459 42.3237C100.426 43.2854 99.737 44.0523 98.9001 44.0593L57.1617 44.413C56.3578 44.4198 55.6878 43.7213 55.6162 42.8014L55.5981 42.5687C55.5162 41.5169 56.2405 40.6042 57.1598 40.6028Z" fill="white"/>
<path opacity="0.78" d="M56.832 48.5417C64.0211 48.5305 91.6199 48.443 98.5892 48.4207C99.4682 48.4178 100.166 49.2524 100.131 50.2626C100.098 51.2243 99.4091 51.9911 98.5723 51.9982L56.834 52.352C56.03 52.3587 55.3601 51.6602 55.2884 50.7404L55.2703 50.5077C55.1881 49.4559 55.9126 48.5431 56.832 48.5417Z" fill="white"/>
<path opacity="0.78" d="M31.9011 59.8557C43.0042 59.8635 85.627 59.8484 96.3899 59.8445C97.7475 59.8439 98.8496 60.6806 98.8252 61.6911C98.802 62.6531 97.7609 63.4183 96.4687 63.4232L32.0158 63.6674C30.7743 63.6721 29.7191 62.9714 29.5817 62.051L29.5468 61.8181C29.3895 60.766 30.4814 59.8547 31.9011 59.8557Z" fill="white"/>
<path opacity="0.78" d="M31.3884 68.1877C40.0309 68.15 73.2086 67.9622 81.5865 67.9145C82.6432 67.9084 83.4952 68.7406 83.4693 69.7516C83.4446 70.7135 82.6288 71.4829 81.623 71.493L31.4512 71.9988C30.4852 72.0083 29.6683 71.3123 29.5676 70.3926L29.5422 70.1599C29.4269 69.1079 30.2832 68.1924 31.3884 68.1877Z" fill="white"/>
<path opacity="0.78" d="M31.7921 78.8145C42.8951 78.8223 85.5179 78.8072 96.281 78.8032C97.6386 78.8027 98.7405 79.6394 98.7162 80.6498C98.693 81.6118 97.6518 82.3771 96.3597 82.382L31.9068 82.6261C30.6653 82.6308 29.6102 81.9302 29.4727 81.0098L29.438 80.777C29.2805 79.7247 30.3723 78.8135 31.7921 78.8145Z" fill="white"/>
<path opacity="0.78" d="M30.8258 87.5679C39.5092 87.5836 72.8438 87.5992 81.2614 87.6029C82.3231 87.6029 83.1746 88.4408 83.1421 89.4511C83.1116 90.4129 82.2875 91.1773 81.2768 91.1812L30.8661 91.379C29.8952 91.3828 29.0789 90.6818 28.9832 89.7613L28.959 89.5284C28.8497 88.4762 29.7154 87.5659 30.8258 87.5679Z" fill="white"/>
<path d="M115.772 136.232C117.058 136.343 119.29 136.522 121.049 136.6C122.107 136.646 122.716 136.543 123.066 136.403C123.066 136.443 123.065 136.48 123.063 136.514C123.058 136.604 123.02 136.688 122.956 136.751C122.892 136.814 122.807 136.852 122.717 136.856C120.416 136.987 118.109 136.989 115.807 136.863C115.763 136.861 115.72 136.847 115.682 136.824C115.644 136.8 115.613 136.767 115.592 136.728C115.571 136.69 115.56 136.646 115.561 136.602C115.562 136.557 115.574 136.514 115.596 136.476C115.649 136.391 115.707 136.309 115.772 136.232Z" fill="url(#paint1_linear_465_10568)"/>
<path d="M121.049 136.599C119.29 136.522 117.058 136.342 115.772 136.232C117.036 134.689 121.049 133.649 121.049 133.649H122.183C122.759 134.452 123.068 135.415 123.066 136.403C122.716 136.543 122.107 136.646 121.049 136.599Z" fill="#2E303D"/>
<path d="M122.374 131.809L122.267 133.897C122.262 134.007 122.218 134.112 122.144 134.194C122.069 134.276 121.968 134.329 121.858 134.345C121.573 134.387 121.281 134.363 121.007 134.275C120.91 134.243 120.823 134.186 120.756 134.11C120.689 134.034 120.644 133.941 120.626 133.841L120.259 131.809L122.374 131.809Z" fill="url(#paint2_linear_465_10568)"/>
<path d="M137.095 136.584C137.653 136.507 137.905 136.218 138.011 135.91L138.013 135.919C138.095 136.244 137.905 136.58 137.525 136.741C137.095 136.907 136.633 136.979 136.173 136.951C135.754 136.934 135.37 136.762 135.159 136.486L135.156 136.482C135.576 136.689 136.165 136.713 137.095 136.584Z" fill="#2E303D"/>
<path d="M134.466 131.795H135.401C136.825 131.766 137.719 134.753 138.011 135.91C137.906 136.218 137.653 136.507 137.096 136.584C136.165 136.713 135.576 136.689 135.156 136.482C134.386 135.475 134.005 134 133.822 133.14C133.756 132.876 133.784 132.598 133.902 132.353C134.02 132.107 134.219 131.91 134.466 131.795Z" fill="#2E303D"/>
<path d="M135.28 129.857L135.799 131.911C135.83 132.034 135.817 132.163 135.765 132.278C135.712 132.392 135.621 132.486 135.508 132.542C135.217 132.691 134.809 132.846 134.433 132.801C134.347 132.79 134.265 132.755 134.198 132.7C134.13 132.645 134.079 132.572 134.051 132.49L133.289 130.33L135.28 129.857Z" fill="url(#paint3_linear_465_10568)"/>
<path d="M135.9 130.451C135.254 131.021 133.153 131.096 133.153 131.096C125.587 113.032 122.492 110.466 122.492 110.466C123.585 117.284 122.668 132.378 122.668 132.378C121.42 132.926 119.81 132.378 119.81 132.378C119.718 122.732 118.42 113.135 115.947 103.807C121.06 103.693 123.78 101.952 124.668 101.254C128.93 108.09 135.9 130.451 135.9 130.451Z" fill="url(#paint4_linear_465_10568)"/>
<path d="M123.369 80.4804C124.337 85.283 123.99 93.8788 123.762 97.7995C123.698 98.9018 124.471 100.429 125.096 101.471C125.12 101.51 125.135 101.553 125.141 101.597C125.147 101.642 125.143 101.687 125.131 101.73C125.118 101.773 125.097 101.813 125.068 101.848C125.04 101.883 125.004 101.911 124.964 101.931C123.917 102.466 120.372 104.125 116.263 104.331C116.129 104.336 115.998 104.296 115.891 104.216C115.784 104.137 115.707 104.024 115.673 103.895C112.625 92.5744 109.085 85.3402 109.085 85.3402C112.993 79.1312 123.369 80.4804 123.369 80.4804Z" fill="#436DE1"/>
<path d="M129.44 94.2638C129.129 96.5011 128.211 98.9414 126.373 101.534L125.675 100.967C125.675 100.967 126.481 97.7126 126.023 94.0191C127.156 93.7991 128.495 94.0259 129.44 94.2638Z" fill="#436DE1"/>
<path d="M122.288 86.4061L123.369 80.4801C123.369 80.4801 130.592 85.9727 129.44 94.2634C128.495 94.0256 127.156 93.7988 126.022 94.0185C125.692 91.3582 124.706 88.47 122.288 86.4061Z" fill="#436DE1"/>
<path d="M109.085 85.34L111.873 91.3131C111.422 94.9193 109.475 96.4786 107.375 97.0766C107.272 95.7389 106.956 94.4259 106.438 93.1868C109.122 90.4313 109.085 85.34 109.085 85.34Z" fill="#436DE1"/>
<path d="M106.439 93.187C106.956 94.4261 107.272 95.7391 107.375 97.0768C101.773 99.239 100.291 95.0457 100.291 95.0457L101.326 94.864C103.664 95.109 105.297 94.3592 106.439 93.187Z" fill="#436DE1"/>
<path d="M111.654 77.9657L113 82.8879C113.036 83.0183 113.099 83.1396 113.185 83.244C113.271 83.3485 113.379 83.4335 113.5 83.4937C113.622 83.5539 113.755 83.5878 113.89 83.5932C114.026 83.5986 114.161 83.5754 114.288 83.5251C114.95 83.2666 115.598 82.9724 116.228 82.6436C116.387 82.5578 116.526 82.44 116.636 82.2976C116.746 82.1553 116.826 81.9916 116.869 81.817C116.912 81.6424 116.918 81.4608 116.886 81.2838C116.854 81.1068 116.786 80.9383 116.685 80.7891L113.887 76.6383L111.654 77.9657Z" fill="url(#paint5_linear_465_10568)"/>
<path d="M108.709 74.2259C108.697 74.3107 109.832 79.843 109.832 79.843L112.994 79.1312L112.701 73.7285C112.701 73.7285 108.914 72.8108 108.709 74.2259Z" fill="url(#paint6_linear_465_10568)"/>
<path d="M111.99 74.9324L112.368 77.7645C112.373 77.8005 112.373 77.8369 112.368 77.8729C112.336 78.095 112.17 78.8507 111.403 78.6345C110.707 78.4385 110.069 78.2698 109.628 78.4039C109.532 78.4328 109.451 78.4962 109.4 78.5816C109.349 78.667 109.332 78.7682 109.352 78.8655C109.527 79.7423 109.771 80.6042 110.08 81.4435C110.117 81.536 110.187 81.6116 110.277 81.6552C110.367 81.6987 110.47 81.7073 110.566 81.679C111.165 81.5051 112.42 81.1031 113.353 80.5446C113.415 80.5078 113.466 80.455 113.5 80.3918C113.535 80.3286 113.551 80.2573 113.548 80.1855C113.518 79.4705 113.434 77.2972 113.505 76.688C113.571 76.1161 114.277 75.7736 114.583 75.6507C114.633 75.6309 114.678 75.6013 114.716 75.5636C114.753 75.5259 114.783 75.481 114.803 75.4316C114.945 75.0778 115.14 74.259 114.103 73.9235C114.052 73.907 114.004 73.8804 113.963 73.8452C113.923 73.8101 113.889 73.7671 113.866 73.7189C113.842 73.6706 113.828 73.6181 113.825 73.5645C113.822 73.5109 113.83 73.4572 113.849 73.4068C114.002 72.9813 114.067 72.332 113.265 71.9742C112.449 71.6107 111.84 72.0432 111.511 72.3947C111.446 72.4628 111.36 72.5061 111.266 72.5171C111.173 72.528 111.078 72.506 111 72.4547C110.945 72.42 110.882 72.4026 110.817 72.4048C110.752 72.4069 110.69 72.4286 110.638 72.467C110.591 72.4951 110.538 72.513 110.484 72.5197C110.429 72.5264 110.374 72.5216 110.321 72.5057C110.268 72.4898 110.22 72.4632 110.178 72.4274C110.136 72.3917 110.102 72.3477 110.079 72.2982C109.883 71.8994 109.485 71.4723 108.686 71.6083C107.27 71.8497 107.109 73.4116 107.483 74.3267C107.857 75.2419 109.378 74.8934 110.141 74.4321C110.721 74.0812 111.474 74.4489 111.801 74.6454C111.852 74.6761 111.896 74.7179 111.928 74.7676C111.961 74.8172 111.982 74.8736 111.99 74.9324Z" fill="#2E303D"/>
<path d="M113.632 77.72C113.632 77.72 113.05 76.0974 113.648 75.7C114.247 75.3027 115.133 75.509 114.938 76.6844C114.695 78.1465 113.632 77.72 113.632 77.72Z" fill="url(#paint7_linear_465_10568)"/>
<path d="M133.187 103.654L86.4189 87.1091L83.9446 93.9461L130.696 110.954C131.177 111.128 131.705 111.129 132.186 110.956C132.667 110.782 133.072 110.446 133.329 110.006C133.876 109.072 134.398 107.613 134.429 105.429C134.434 105.041 134.317 104.661 134.094 104.343C133.872 104.025 133.554 103.784 133.187 103.654Z" fill="#2E303D"/>
<path d="M71.9502 85.3417L78.4104 86.1307C78.4036 87.0151 78.1124 88.1594 77.1269 89.4721L71.7318 85.9316C71.6709 85.8914 71.6253 85.832 71.6025 85.7628C71.5798 85.6937 71.5812 85.619 71.6064 85.5507C71.6317 85.4824 71.6794 85.4247 71.7418 85.3867C71.8042 85.3488 71.8776 85.3329 71.9502 85.3417Z" fill="#2E303D"/>
<path d="M86.4186 87.1092C86.7145 91.3939 83.9443 93.9462 83.9443 93.9462L77.1267 89.4721C78.1123 88.1594 78.4034 87.0151 78.4102 86.1306L86.4186 87.1092Z" fill="url(#paint8_linear_465_10568)"/>
<path d="M126.136 100.61L122.11 100.283L120.366 101.882C120.366 101.882 120.779 102.45 122.069 102.123C123.358 101.797 125.125 101.717 125.125 101.717C125.125 101.717 126.906 102.516 126.927 101.022L126.136 100.61Z" fill="url(#paint9_linear_465_10568)"/>
<path d="M44.2734 47.5004C43.743 48.2837 42.8884 48.9991 41.8374 49.52C40.7035 50.0793 39.4551 50.371 38.1894 50.3726C36.3285 50.3726 34.6265 49.8921 33.5462 49.0577C32.4317 48.1968 31.9682 46.959 31.9682 45.4831C31.9682 42.4401 34.6148 40.3546 38.7051 40.3546C40.6988 40.3546 42.8643 40.8333 44.2734 41.5511V40.2862C44.2734 37.8926 42.6235 36.3198 39.9082 36.3198C37.9571 36.3198 36.2327 36.8816 35.1915 37.6953C33.6882 38.5026 32.3779 39.6234 31.3502 40.9809C30.8661 41.6283 30.4191 42.3023 30.0113 42.9997C28.5463 45.47 28.9138 48.6412 30.9451 50.6768C31.3168 51.0495 31.719 51.3908 32.1474 51.6973C34.0929 53.0886 36.9768 53.743 39.5557 53.743C41.1747 53.7466 42.7784 53.4299 44.2732 52.8112L44.2734 47.5004Z" fill="#F7F7FA"/>
<path d="M37.2428 42.9145C35.7106 43.3056 34.3237 44.2352 34.3237 45.4148C34.3237 45.9277 34.9999 46.3733 35.3394 46.7299C35.9051 47.3243 36.9179 47.6718 38.2927 47.6718C39.4937 47.6613 40.676 47.3745 41.7472 46.8341C42.8042 46.3041 43.7064 45.552 44.2735 44.6631V43.8424C42.8988 43.1243 40.7677 42.7141 38.9803 42.7141C38.395 42.7085 37.8113 42.7758 37.2428 42.9145Z" fill="#F7F7FA"/>
<path d="M48.6321 33.83C46.4651 31.4747 43.018 29.8334 39.5556 29.8334C36.5839 29.8334 33.8675 31.2512 31.7872 33.0485C30.51 34.149 29.4848 35.509 28.7805 37.0369C28.0763 38.5648 27.7094 40.2251 27.7046 41.9059C28.5898 40.8632 29.3356 39.9116 29.9482 39.222C33.5529 35.1636 35.8659 33.5531 39.9423 33.5846C41.9588 33.6001 43.8122 33.9628 45.0567 34.9297C46.5702 36.1053 47.2635 38.0723 47.2635 40.2862V51.0076C48.8208 49.7177 50.0062 48.0399 50.6987 46.1455C51.1698 44.7974 51.4096 43.3802 51.4081 41.953C51.408 38.8858 50.5619 35.9272 48.6321 33.83Z" fill="#F7F7FA"/>
<path opacity="0.78" d="M30.6947 131.756L56.7575 131.108C57.1595 131.098 57.5417 130.932 57.8226 130.645C58.1034 130.359 58.2605 129.975 58.2605 129.575V97.3559C58.2605 96.9529 58.101 96.566 57.8164 96.2791C57.5319 95.9921 57.1453 95.8282 56.7401 95.8226L30.5203 95.4632C30.3155 95.4604 30.1121 95.4982 29.9222 95.5744C29.7322 95.6507 29.5595 95.7638 29.414 95.9072C29.2685 96.0507 29.1532 96.2215 29.0748 96.4097C28.9964 96.598 28.9566 96.7999 28.9575 97.0036L29.1142 130.23C29.1152 130.434 29.1571 130.636 29.2375 130.824C29.3179 131.012 29.4351 131.181 29.5823 131.323C29.7295 131.465 29.9037 131.577 30.0947 131.651C30.2857 131.725 30.4897 131.761 30.6947 131.756Z" fill="white"/>
<path opacity="0.78" d="M65.1673 98.7312C76.2703 98.7389 84.3545 98.7198 95.1174 98.7198C97.3376 98.7198 97.5528 100.566 97.5528 100.566C97.5295 101.528 96.4884 102.294 95.1962 102.299L65.282 102.543C62.8727 102.543 62.8129 100.694 62.8129 100.694C62.6556 99.6413 63.7475 98.7301 65.1673 98.7312Z" fill="white"/>
<path opacity="0.78" d="M64.6575 107.855C73.3408 107.855 93.0096 108.173 101.427 108.173C103.308 108.173 103.308 110.021 103.308 110.021C103.277 110.983 102.453 111.747 101.442 111.751L64.6976 111.667C63.7265 111.67 62.9103 110.969 62.8146 110.049C62.8151 110.049 62.4924 107.855 64.6575 107.855Z" fill="white"/>
<path opacity="0.78" d="M65.1194 118.137C76.2224 118.137 86.7634 118.13 97.5264 118.126C98.884 118.126 99.9861 118.962 99.9617 119.972C99.9385 120.934 98.8974 121.7 97.6052 121.705L65.234 121.949C63.9925 121.954 62.9373 121.253 62.8 120.333C62.7998 120.332 62.6408 118.137 65.1194 118.137Z" fill="white"/>
<path opacity="0.78" d="M64.8042 127.414C73.3778 127.414 73.8965 127.372 82.208 127.36C83.2564 127.359 84.0975 128.195 84.0668 129.205C84.0377 130.167 83.2247 130.933 82.2268 130.939L64.848 131.225C63.8892 131.231 62.8932 130.531 62.7979 129.611C62.7979 129.611 62.9537 127.414 64.8042 127.414Z" fill="white"/>
<defs>
<linearGradient id="paint0_linear_465_10568" x1="110.811" y1="58.2046" x2="125.017" y2="58.2046" gradientUnits="userSpaceOnUse">
<stop stop-color="#DAE3FE"/>
<stop offset="1" stop-color="#E9EFFD"/>
</linearGradient>
<linearGradient id="paint1_linear_465_10568" x1="123.066" y1="136.593" x2="115.56" y2="136.593" gradientUnits="userSpaceOnUse">
<stop stop-color="#4F52FF"/>
<stop offset="1" stop-color="#4042E2"/>
</linearGradient>
<linearGradient id="paint2_linear_465_10568" x1="123.366" y1="131.376" x2="137.118" y2="120.91" gradientUnits="userSpaceOnUse">
<stop stop-color="#FEBBBA"/>
<stop offset="1" stop-color="#FF928E"/>
</linearGradient>
<linearGradient id="paint3_linear_465_10568" x1="3752.13" y1="4219.72" x2="4116.83" y2="3991.99" gradientUnits="userSpaceOnUse">
<stop stop-color="#FEBBBA"/>
<stop offset="1" stop-color="#FF928E"/>
</linearGradient>
<linearGradient id="paint4_linear_465_10568" x1="115.947" y1="116.938" x2="135.9" y2="116.938" gradientUnits="userSpaceOnUse">
<stop stop-color="#FF928E"/>
<stop offset="1" stop-color="#FE7062"/>
</linearGradient>
<linearGradient id="paint5_linear_465_10568" x1="-7536.1" y1="5732.59" x2="-7528.57" y2="6704.19" gradientUnits="userSpaceOnUse">
<stop stop-color="#FEBBBA"/>
<stop offset="1" stop-color="#FF928E"/>
</linearGradient>
<linearGradient id="paint6_linear_465_10568" x1="-6889.69" y1="13734.6" x2="-6497.52" y2="14197.3" gradientUnits="userSpaceOnUse">
<stop stop-color="#FEBBBA"/>
<stop offset="1" stop-color="#FF928E"/>
</linearGradient>
<linearGradient id="paint7_linear_465_10568" x1="-2303.33" y1="4980.84" x2="-2408.24" y2="4879.62" gradientUnits="userSpaceOnUse">
<stop stop-color="#FEBBBA"/>
<stop offset="1" stop-color="#FF928E"/>
</linearGradient>
<linearGradient id="paint8_linear_465_10568" x1="-17287.5" y1="6847.2" x2="-14611.7" y2="10124.4" gradientUnits="userSpaceOnUse">
<stop stop-color="#FF928E"/>
<stop offset="1" stop-color="#FE7062"/>
</linearGradient>
<linearGradient id="paint9_linear_465_10568" x1="-9086.63" y1="2117.53" x2="-8948.77" y2="2530.14" gradientUnits="userSpaceOnUse">
<stop stop-color="#FEBBBA"/>
<stop offset="1" stop-color="#FF928E"/>
</linearGradient>
</defs>
</svg>
