<svg width="165" height="152" viewBox="0 0 165 152" fill="none" xmlns="http://www.w3.org/2000/svg">
<g clip-path="url(#clip0_465_10615)">
<path d="M142.737 110.43C140.036 115.356 139.4 116.134 137.29 118.571C116.717 142.342 79.0823 148.351 69.7053 149.156C54.5777 150.453 47.2507 151.459 34.2096 144.932C4.5762 130.1 -6.62682 85.1954 3.83679 52.5776C5.07766 48.71 15.8096 18.3965 43.6698 6.65184C44.3513 6.3646 76.6151 -7.28588 104.443 5.36761C110.788 8.26487 116.662 12.0932 121.871 16.7254C147.056 39.0513 158.784 81.1552 142.737 110.43Z" fill="white"/>
<path d="M114.466 93.7138C114.439 93.9821 114.478 94.2529 114.581 94.5023C114.684 94.7518 114.846 94.9722 115.054 95.1441C115.262 95.3161 115.51 95.4343 115.774 95.4884C116.039 95.5425 116.313 95.5307 116.572 95.4542C122.767 93.6422 139.816 86.9389 148.437 66.4364C155.717 49.1229 161.313 40.4251 164.128 36.6522C164.723 35.8544 163.952 34.7622 162.997 35.0513C152.475 38.2417 118.887 51.6485 114.466 93.7138Z" fill="#BDD0FB"/>
<path d="M115.887 94.4124C115.921 94.4703 115.968 94.5199 116.023 94.5577C116.079 94.5955 116.143 94.6205 116.209 94.631C116.276 94.6414 116.344 94.6371 116.409 94.6182C116.473 94.5994 116.533 94.5665 116.583 94.5219C116.797 94.3325 138.099 75.3128 149.311 51.6958C149.363 51.5866 149.37 51.4613 149.329 51.3474C149.288 51.2336 149.204 51.1405 149.094 51.0888C148.985 51.037 148.859 51.0308 148.745 51.0715C148.631 51.1121 148.538 51.1963 148.486 51.3056C137.355 74.751 116.19 93.652 115.977 93.8402C115.898 93.9103 115.846 94.0057 115.829 94.1101C115.813 94.2144 115.833 94.3213 115.887 94.4124Z" fill="url(#paint0_linear_465_10615)"/>
<path d="M150.491 34.7734C150.949 34.3344 150.563 33.566 149.935 33.6601C143.559 34.6153 126.754 39.0543 115.933 59.6067C102.356 85.3927 91.3775 90.6454 81.5291 91.675C81.5291 91.675 91.742 95.0413 103.184 89.9196C131.278 77.3448 142.353 42.5797 150.491 34.7734Z" fill="#91B3FA"/>
<path d="M142.402 40.172C140.083 42.4859 137.812 44.8442 135.63 47.282C133.436 49.708 131.319 52.1982 129.278 54.7528C127.25 57.3136 125.269 59.9126 123.403 62.5914C121.524 65.2617 119.763 68.0089 118.004 70.7744C116.231 73.528 114.46 76.3122 112.398 78.9237C110.343 81.5318 107.943 83.9369 105.174 85.8332C104.483 86.3053 103.78 86.7669 103.058 87.1821C102.343 87.6112 101.609 88.0087 100.867 88.3932C96.3956 90.7048 91.4708 92.0114 86.4389 92.2211C86.2727 92.2292 86.11 92.1718 85.9859 92.0612C85.8618 91.9506 85.7862 91.7958 85.7755 91.6301C85.7648 91.4644 85.8198 91.3012 85.9287 91.1756C86.0375 91.0501 86.1915 90.9723 86.3574 90.959H86.3598C87.1667 90.8961 87.9721 90.8242 88.771 90.7167C89.1714 90.6693 89.569 90.6043 89.9676 90.5467C90.3636 90.4742 90.7625 90.4173 91.1557 90.3323C92.7338 90.0215 94.2873 89.5973 95.8042 89.0632C98.8371 88.0093 101.728 86.4984 104.377 84.6914C105.692 83.7735 106.936 82.7579 108.098 81.6533C109.259 80.5387 110.345 79.348 111.347 78.0891C113.369 75.5682 115.144 72.8271 116.937 70.0864C118.734 67.3474 120.559 64.6073 122.494 61.9464C123.458 60.6136 124.445 59.2984 125.456 58.0009C125.957 57.3495 126.472 56.7078 126.985 56.0654C127.504 55.4278 128.027 54.7937 128.554 54.163C130.669 51.6459 132.86 49.1967 135.126 46.8154C137.403 44.4472 139.743 42.1401 142.167 39.9269C142.2 39.8972 142.243 39.8815 142.287 39.883C142.332 39.8846 142.374 39.9034 142.404 39.9353C142.435 39.9673 142.452 40.0099 142.451 40.0541C142.451 40.0982 142.433 40.1406 142.402 40.172H142.402Z" fill="#BDD0FB"/>
<path d="M36.1997 145.456L28.9329 29.8807C28.8222 28.9587 28.9069 28.0237 29.1815 27.1364C29.4562 26.2492 29.9147 25.4294 30.5272 24.7302C31.1398 24.0311 31.8928 23.4682 32.7374 23.078C33.582 22.6879 34.4993 22.4792 35.4299 22.4655L115.595 21.2844C117.26 21.2599 118.873 21.86 120.116 22.9658C121.358 24.0717 122.139 25.6026 122.303 27.2556L133.347 138.114C133.439 139.035 133.336 139.965 133.046 140.844C132.755 141.723 132.284 142.532 131.661 143.218C131.038 143.904 130.279 144.452 129.431 144.828C128.583 145.203 127.665 145.397 126.738 145.397L42.7948 151.294C41.17 151.294 39.6016 150.7 38.3863 149.624C37.171 148.548 36.3931 147.065 36.1997 145.456Z" fill="#D4DEFB"/>
<path d="M45.2246 145.731L125.041 140.345C125.56 140.315 126.067 140.182 126.533 139.954C126.999 139.726 127.415 139.408 127.757 139.017C128.098 138.627 128.358 138.172 128.521 137.68C128.684 137.189 128.747 136.669 128.706 136.153L118.751 28.4349L34.0544 29.7341L41.1073 142.125C41.181 143.145 41.6543 144.095 42.4248 144.77C43.1953 145.445 44.201 145.79 45.2246 145.731Z" fill="url(#paint1_linear_465_10615)"/>
<path opacity="0.78" d="M49.0763 99.2304C55.4753 99.0009 80.0399 98.0797 86.2428 97.8468C87.0252 97.8175 87.6719 98.5413 87.6719 99.4443C87.6719 100.304 87.0825 101.01 86.3376 101.042L49.1952 102.632C48.4797 102.663 47.8619 102.06 47.7698 101.241L47.7465 101.033C47.6415 100.097 48.258 99.2598 49.0763 99.2304Z" fill="white"/>
<path opacity="0.78" d="M49.4506 106.329C55.8498 106.099 55.5579 105.839 61.7649 105.839C63.2415 105.839 63.1941 107.436 63.1941 107.436C63.1941 108.296 62.6047 109.002 61.8598 109.033L49.5691 109.73C48.8537 109.761 48.2359 109.158 48.1438 108.338L48.1205 108.131C48.0156 107.195 48.6324 106.358 49.4506 106.329Z" fill="white"/>
<path opacity="0.78" d="M47.9558 84.8565C54.3548 84.627 71.8554 83.9559 78.0627 83.9542C79.5155 83.9542 79.4919 85.5518 79.4919 85.5518C79.4919 86.4116 78.9025 87.1171 78.1576 87.149L48.0746 88.2584C47.3591 88.2891 46.7413 87.6859 46.6493 86.8668L46.6259 86.6595C46.5209 85.723 47.1375 84.8858 47.9558 84.8565Z" fill="white"/>
<path opacity="0.78" d="M48.3305 91.9549C54.7296 91.7253 79.2941 90.8041 85.497 90.5713C86.2794 90.5419 86.9261 91.2657 86.9261 92.1688C86.9261 93.0286 86.3367 93.7342 85.5919 93.766L48.4494 95.3568C47.734 95.3875 47.1161 94.7842 47.024 93.9651L47.0008 93.7579C46.8953 92.8213 47.5119 91.9842 48.3305 91.9549Z" fill="white"/>
<path d="M66.5937 124.026C66.7927 128.55 63.2077 132.714 58.5862 133.329C53.9647 133.947 50.057 130.726 49.8578 126.132C49.6586 121.537 53.2437 117.366 57.8652 116.818C62.4871 116.273 66.3949 119.501 66.5937 124.026Z" fill="#F7F7FA"/>
<path d="M102.042 64.2816C100.954 65.8924 99.2025 67.3634 97.0477 68.4344C94.723 69.5845 92.1638 70.1845 89.569 70.1877C85.7539 70.1877 82.2648 69.1999 80.0501 67.4839C77.7652 65.7137 76.8151 63.1684 76.8151 60.1341C76.8151 53.877 82.2409 49.5883 90.626 49.5883C94.7134 49.5883 99.1528 50.5725 102.041 52.0486V49.4471C102.041 44.5253 98.6595 41.2911 93.0923 41.2911C89.0935 41.2911 85.5573 42.4468 83.4234 44.1201C83.1847 44.3073 79.1222 46.1653 75.5483 50.8762C74.5558 52.2073 73.6394 53.5932 72.8034 55.0272C69.8001 60.1068 70.5536 66.628 74.7178 70.8136C75.4797 71.58 76.3041 72.282 77.1825 72.9122C81.1708 75.773 87.0829 77.1187 92.3698 77.1187C95.6891 77.1263 98.9767 76.475 102.041 75.2027L102.042 64.2816Z" fill="#F7F7FA"/>
<path d="M87.6287 54.8517C84.4876 55.656 81.6443 57.5674 81.6443 59.993C81.6443 61.0477 83.0304 61.9639 83.7266 62.6972C84.8869 63.9194 86.9624 64.6334 89.7811 64.6334C92.2122 64.6334 94.6961 64.0006 96.8629 62.9108C99.0297 61.821 100.879 60.2744 102.042 58.4465V56.7589C99.2241 55.2822 94.8553 54.4384 91.1909 54.4384C89.9909 54.4273 88.7942 54.5662 87.6287 54.8517Z" fill="#F7F7FA"/>
<path d="M110.978 36.1715C106.535 31.3291 99.4683 27.9534 92.3703 27.9534C86.278 27.9534 80.7093 30.8686 76.4446 34.5645C73.8262 36.8274 71.7244 39.624 70.2806 42.7657C68.8369 45.9075 68.0848 49.3215 68.075 52.7778C69.8895 50.6337 71.4187 48.6768 72.6744 47.2585C80.0644 38.9133 84.806 35.6016 93.1631 35.6663C97.2971 35.6983 101.097 36.4441 103.649 38.4323C106.751 40.8498 108.173 44.8946 108.173 49.4469V71.4935C111.365 68.8409 113.795 65.3907 115.214 61.4951C116.155 58.9111 116.669 55.7832 116.669 52.8748C116.668 46.5678 114.934 40.484 110.978 36.1715Z" fill="#F7F7FA"/>
<path d="M89.7042 123.033C89.9033 127.556 86.3182 131.72 81.6968 132.336C77.0753 132.953 73.1676 129.732 72.9684 125.139C72.7693 120.544 76.3544 116.372 80.9758 115.825C85.5974 115.28 89.5052 118.508 89.7042 123.033Z" fill="#436DE1"/>
<path d="M112.408 122.058C112.607 126.581 109.022 130.745 104.4 131.361C99.7787 131.978 95.8709 128.757 95.6717 124.163C95.4727 119.568 99.0577 115.397 103.679 114.85C108.301 114.304 112.208 117.532 112.408 122.058Z" fill="url(#paint2_linear_465_10615)"/>
<path d="M46.0997 89.5977C46.0997 89.5977 47.298 88.1487 47.5559 87.9775C47.8138 87.8063 48.9458 87.506 49.0106 87.5664C49.0755 87.6267 49.0782 87.7143 48.938 87.838C48.7978 87.9617 48.2624 88.2732 48.3388 88.3084C48.4151 88.3435 50.0302 87.541 50.2631 87.8111C50.4959 88.0811 50.1312 89.1947 49.5088 89.7286C48.8865 90.2625 47.0289 90.4903 46.912 90.5648C45.9213 91.1969 46.0997 89.5977 46.0997 89.5977Z" fill="#DD8D8A"/>
<path d="M25.0007 86.2518C25.0007 86.2518 26.7228 88.2901 28.9149 87.4373C28.9149 87.4373 29.3866 86.2992 29.3932 85.4601C29.3939 85.3568 29.3952 85.2567 29.3968 85.1616C29.4086 84.2168 29.4404 83.6867 29.4404 83.6867C29.4397 83.6866 29.439 83.6866 29.4382 83.6867C29.3385 83.6452 26.0867 82.3132 26.0894 82.4238C26.1452 84.9786 25.0007 86.2518 25.0007 86.2518Z" fill="#EE9793"/>
<path d="M26.4157 83.0327C26.7293 83.6126 27.8056 84.7472 29.3967 85.1616C29.4085 84.2169 29.4403 83.6868 29.4403 83.6868C29.4396 83.6867 29.4389 83.6867 29.4381 83.6868C29.3481 83.6622 26.3224 82.8618 26.4157 83.0327Z" fill="#DD8D8A"/>
<path d="M30.1212 83.5885C30.1212 83.5885 26.4642 84.4464 25.9638 82.1659C25.4634 79.8853 24.6545 78.4602 26.9682 77.8161C29.282 77.172 29.9281 77.9427 30.2806 78.6634C30.6332 79.384 31.0596 83.3071 30.1212 83.5885Z" fill="#EE9793"/>
<path d="M26.0892 82.7873C26.0391 82.8192 25.2523 83.0604 23.7621 80.0984C23.5282 79.6333 23.3688 78.6276 23.9141 77.7388C24.4594 76.8499 26.3929 76.1511 27.9993 75.847C29.6057 75.543 29.9915 76.4448 30.3698 77.3513C30.7668 78.3028 31.9138 79.0861 31.9138 79.0861C30.5285 79.8583 28.86 78.754 28.2816 78.9355C27.7031 79.1171 27.4994 80.0264 27.4561 80.3175C27.4127 80.6085 27.346 80.8508 26.6191 80.5907C25.8922 80.3305 26.2909 81.6185 26.4076 81.8649C26.4076 81.8649 26.506 82.5213 26.0892 82.7873Z" fill="#923B33"/>
<path d="M16.6684 139.731H14.4538C13.9897 139.731 13.4739 139.262 13.3447 138.401C13.2156 137.541 12.2615 137.071 12.0548 136.366C11.8482 135.662 12.9064 134.671 12.9064 134.671L13.0832 134.441L13.2673 134.201L15.0214 134.618C15.0214 134.618 15.0645 135.041 15.0917 135.579C15.1102 135.967 15.1207 136.416 15.0988 136.81C15.0472 137.749 15.3589 138.76 16.184 138.943C17.0092 139.126 16.6684 139.731 16.6684 139.731Z" fill="#050730"/>
<path d="M32.0841 139.753H26.2144C26.1715 139.746 26.1296 139.733 26.0897 139.716C25.6979 139.514 25.821 137.973 25.8674 137.497C25.8766 137.409 25.8829 137.357 25.8829 137.357C25.8829 137.357 27.9469 135.661 28.231 136.96C28.2402 137 28.2503 137.04 28.2613 137.079V137.08C28.6197 138.295 30.2214 138.846 31.1465 139C31.8536 139.118 32.037 139.541 32.0841 139.753Z" fill="#050730"/>
<path d="M30.9009 105.885C30.9009 105.885 30.5874 109.788 30.219 114.478C29.7187 120.85 29.1164 128.677 29.0565 130.159C28.9536 132.734 28.5403 136.853 28.5403 136.853C28.5403 136.853 27.5605 137.831 25.5992 137.419C25.5992 137.419 23.8515 131.54 23.3523 125.319C23.3445 125.218 23.3368 125.115 23.3291 125.012C22.8648 118.68 22.1426 105.345 22.1426 105.345L30.9009 105.885Z" fill="#436DE1"/>
<path d="M29.4694 106.349C29.4694 106.349 23.8193 120.481 20.1042 127.123C16.3891 133.764 15.2283 135.617 15.2283 135.617C15.2283 135.617 13.0997 134.768 12.9062 134.189C12.9062 134.189 14.327 121.367 16.8148 118.242C18.2207 116.476 19.8726 111.176 19.9495 109.322C20.0264 107.469 20.4525 103.801 20.4525 103.801L29.4694 106.349Z" fill="#436DE1"/>
<path d="M16.5333 103.995C16.5333 103.995 16.387 105.76 16.2797 106.031C16.1724 106.302 15.4583 107.142 15.3755 107.13C15.2928 107.118 15.2433 107.052 15.2852 106.881C15.3271 106.709 15.5733 106.181 15.4954 106.195C15.4175 106.209 14.5998 107.697 14.2742 107.613C13.9486 107.529 13.6301 106.471 13.8239 105.724C14.0176 104.977 15.3327 103.803 15.3828 103.683C15.8088 102.662 16.5333 103.995 16.5333 103.995Z" fill="#DD8D8A"/>
<path d="M15.9266 104.443C16.552 104.643 16.6522 104.598 16.6522 104.598C16.6522 104.598 19.696 99.0687 20.0044 98.5625C20.3128 98.0564 26.4669 92.362 26.4669 92.362L24.8853 86.478C24.8853 86.478 17.8856 95.5219 17.1299 96.8198C15.8808 98.9647 15.1489 103.945 15.1489 103.945C15.3612 104.175 15.629 104.346 15.9266 104.443Z" fill="url(#paint3_linear_465_10615)"/>
<path d="M32.0934 94.6723C32.0715 95.8808 32.0008 97.2392 31.9062 98.6189C31.9004 98.7009 31.8947 98.7827 31.8889 98.8645C31.8281 99.7193 31.7623 100.576 31.6867 101.412C31.6564 101.746 31.6241 102.077 31.5905 102.403L31.5854 102.447C31.5827 102.568 31.5679 102.7 31.5544 102.821C31.2458 105.95 30.9223 108.422 30.8623 108.46C30.7921 108.509 30.7065 108.531 30.6214 108.522C29.7989 108.419 27.345 108.605 25.3359 108.169C23.6402 107.812 22.1809 107.135 20.634 106.223C20.4287 106.102 19.9607 105.781 19.9988 105.542C20.0358 105.278 20.1053 104.898 20.1934 104.419C20.4982 102.755 21.0243 99.8912 21.2033 96.5405C21.2383 95.9162 21.2889 95.3006 21.355 94.6937C21.5096 93.204 21.7836 91.7291 22.1744 90.2832C22.8632 87.8084 23.8754 85.9132 25.1454 85.1718C25.3113 85.0794 26.2041 85.6459 27.0241 86.1709C27.7156 86.6129 28.5372 86.8071 29.354 86.7217L30.0363 87.4747C30.8628 88.4331 31.7427 89.7093 31.9829 91.5231C32.0009 91.6572 32.0164 91.7997 32.0292 91.9509C32.0972 92.8563 32.1186 93.7647 32.0934 94.6723Z" fill="url(#paint4_linear_465_10615)"/>
<path d="M32.0937 94.6723C32.0717 95.8808 32.001 97.2392 31.9064 98.6189C31.9007 98.7008 31.8949 98.7827 31.8891 98.8645C27.1913 95.9303 26.4673 90.5613 26.4673 90.5613C28.7786 90.663 30.6147 91.1926 32.0297 91.9508C32.0976 92.8563 32.1189 93.7646 32.0937 94.6723Z" fill="url(#paint5_linear_465_10615)"/>
<path d="M46.8126 89.7427C46.5704 89.0889 46.1938 89.1315 46.1938 89.1315C46.1938 89.1315 39.2086 90.8682 38.5818 90.9428C37.9549 91.0173 31.0598 88.2566 31.0598 88.2566C31.0598 88.2566 28.3458 87.0412 27.0745 88.1509C25.9698 89.1152 25.9196 90.3367 26.178 91.3625C26.3308 91.9597 26.6603 92.4972 27.1238 92.9047C27.5872 93.3123 28.1629 93.5711 28.7759 93.6474C31.5889 94.0049 37.2015 94.6778 38.3778 94.5144C40.9961 94.1507 46.9283 90.7338 46.9283 90.7338C46.9666 90.3989 46.927 90.0598 46.8126 89.7427Z" fill="url(#paint6_linear_465_10615)"/>
</g>
<defs>
<linearGradient id="paint0_linear_465_10615" x1="136.735" y1="77.6706" x2="128.608" y2="67.9945" gradientUnits="userSpaceOnUse">
<stop stop-color="#DAE3FE"/>
<stop offset="1" stop-color="#E9EFFD"/>
</linearGradient>
<linearGradient id="paint1_linear_465_10615" x1="88.4004" y1="199.095" x2="81.1738" y2="78.9872" gradientUnits="userSpaceOnUse">
<stop stop-color="#ADC0E0"/>
<stop offset="0.161" stop-color="#AEC1E0" stop-opacity="0.985"/>
<stop offset="0.297" stop-color="#B2C4E2" stop-opacity="0.938"/>
<stop offset="0.425" stop-color="#B8C9E4" stop-opacity="0.86"/>
<stop offset="0.548" stop-color="#C2D0E8" stop-opacity="0.749"/>
<stop offset="0.666" stop-color="#CDD9EC" stop-opacity="0.607"/>
<stop offset="0.782" stop-color="#DCE4F2" stop-opacity="0.432"/>
<stop offset="0.893" stop-color="#ECF1F8" stop-opacity="0.229"/>
<stop offset="1" stop-color="white" stop-opacity="0"/>
</linearGradient>
<linearGradient id="paint2_linear_465_10615" x1="95.6412" y1="123.472" x2="112.437" y2="122.747" gradientUnits="userSpaceOnUse">
<stop stop-color="#FF928E"/>
<stop offset="1" stop-color="#FE7062"/>
</linearGradient>
<linearGradient id="paint3_linear_465_10615" x1="1865.56" y1="18816.5" x2="3248.06" y2="18816.5" gradientUnits="userSpaceOnUse">
<stop stop-color="#FF928E"/>
<stop offset="1" stop-color="#FE7062"/>
</linearGradient>
<linearGradient id="paint4_linear_465_10615" x1="2632.86" y1="24557.1" x2="4214.41" y2="24557.1" gradientUnits="userSpaceOnUse">
<stop stop-color="#FF928E"/>
<stop offset="1" stop-color="#FE7062"/>
</linearGradient>
<linearGradient id="paint5_linear_465_10615" x1="1636.55" y1="8596.94" x2="1979.25" y2="8596.94" gradientUnits="userSpaceOnUse">
<stop stop-color="#FF928E"/>
<stop offset="1" stop-color="#FE7062"/>
</linearGradient>
<linearGradient id="paint6_linear_465_10615" x1="5899.84" y1="6844.24" x2="10611.2" y2="6844.24" gradientUnits="userSpaceOnUse">
<stop stop-color="#FF928E"/>
<stop offset="1" stop-color="#FE7062"/>
</linearGradient>
<clipPath id="clip0_465_10615">
<rect width="164.337" height="151.294" fill="white"/>
</clipPath>
</defs>
</svg>
