<svg fill="none" height="440" viewBox="0 0 291 440" width="291" xmlns="http://www.w3.org/2000/svg" xmlns:xlink="http://www.w3.org/1999/xlink"><clipPath id="a"><path d="m0 0h291v440h-291z"/></clipPath><g clip-path="url(#a)"><path d="m194.259 99.396-3.446 46.881 8.686 14.857 50.204 3.802 2.895-51.384-14.736-10.746z" fill="#fff" stroke="#050505" stroke-linecap="round" stroke-linejoin="round" stroke-width="2"/><path d="m214.395 205.801 3.445 46.881 52.973-5.421 18.505-6.715-4.13-48.686 2.447-4.619-5.046-3.776-6.792 8.504-24.436.844-9.08-7.582-5.112 3.897 4.996 5.176h-7.31z" fill="#fff"/><path d="m213.618 344.634 47.102-5.037 17.909-15.371-3.256-44.308 2.836-3.479-8.336-5.202-3.465 4.677-43.358 4.39-13.732 17.386z" fill="#fff"/><g stroke="#050505" stroke-linecap="round" stroke-linejoin="round" stroke-width="2"><path d="m52.7219 259c15.269 106.248 70.5801 185.954 124.8231 178.886 55.091-7.179 88.218-101.147 73.991-209.883-14.226-108.736-70.418-191.0653-125.509-183.8867-53.3094 6.9466-86.0526 95.1607-75.2239 199.3837"/><path d="m75.1666 255.916c20.7281-2.701 33.1924-38.057 27.8394-78.97-5.3527-40.913-26.4954-71.89-47.2235-69.189s-33.1922 38.057-27.8395 78.97c5.3528 40.913 26.4955 71.89 47.2236 69.189z" fill="#fff"/><path d="m50.1468 259.174c-20.7284 2.701-41.87065-28.275-47.22349-69.188-5.35285-40.913 7.11079-76.269 27.83749-78.971"/><path d="m60.8125 146.2 5.2082 39.797 14.1038-15.383"/><path d="m55.7822 107.755-25.0214 3.26"/><path d="m75.1679 255.914-25.0214 3.26"/><path d="m58.0515 125.101-1.043-7.978"/><path d="m73.952 246.625-1.043-7.98"/><path d="m94.3031 177.804-3.8422.501"/><path d="m43.7547 184.392-6.6717.87"/><path d="m39.9932 136.097 4.081 5.352"/><path d="m52.5117 231.777 2.5671-6.22"/><path d="m80.6241 131.252-2.668 4.625"/><path d="m92.9362 225.352-3.7682-3.787"/><path d="m35.3213 160.111 6.3622 1.968"/><path d="m41.7794 209.472 5.6438-3.53"/><path d="m89.6973 153.025-3.3291 2.065"/><path d="m96.0059 201.241-3.748-1.143"/><path d="m157.141 378.613-93.3581 16.433c-9.4877 2.028-18.8258-4.004-20.8562-13.473l-8.47-58.267c-2.0322-9.469 4.0121-18.788 13.4998-20.814l99.3225-25.252c9.487-2.028 18.825 4.004 20.856 13.473l15.905 64.727c.751 3.499.399 6.976-.821 10.073"/><path d="m170.38 376.312-106.7572 18.791c-9.4877 2.028-18.8258-4.004-20.8562-13.473l-8.47-58.267c-2.0322-9.469 4.0121-18.788 13.4998-20.814l99.3216-25.252c9.488-2.028 18.826 4.004 20.857 13.473l15.905 64.727c2.032 9.469-4.012 18.788-13.5 20.815z" fill="#fff"/><path d="m124.589 361.249-26.1455 5.587c-1.4534.311-2.8833-.612-3.1929-2.063l-.831-3.875c-.3112-1.45.614-2.877 2.0675-3.186l26.0109-6.214c1.453-.31 2.883.613 3.193 2.064l.965 4.501c.311 1.45-.614 2.877-2.067 3.186z"/><path d="m133.319 334.111-54.2063 10.464c-3.6034.771-4.8953-1.417-5.3293-3.443 0 0-1.1541-3.993 3.5192-4.991l53.3924-12.515c3.119-.666 5.647 1.956 6.13 4.204.516 2.403-.86 5.715-3.508 6.281z"/><path d="m138.72 313.877-72.6068 15.518c-2.3333.499-4.6312-.986-5.1308-3.314-.4996-2.329.9874-4.622 3.3207-5.121l72.1949-17.441c1.167-.25 4.553.193 5.425 4.258.738 3.445-1.09 5.649-3.203 6.1z"/><path d="m174.029 384.776 11.919 14.28 6.312-5.246-11.919-14.28 11.57-9.618-42.277-21.377 12.823 45.861z" fill="#fff"/></g><path d="m259.037 191.86 13.458 53.722-8.411 3.358-23.551 1.679-3.487-56.028z" fill="#fff"/><path d="m288.75 240.732-50.202 3.803-3.693-50.231 50.205-3.803z" stroke="#050505" stroke-linecap="round" stroke-linejoin="round" stroke-width="2"/><path d="m238.548 244.535-19.884 7.763 52.149-5.037 18.504-6.715" stroke="#050505" stroke-linecap="round" stroke-linejoin="round" stroke-width="2"/><path d="m217.839 252.682-3.445-46.881 20.461-11.497" stroke="#050505" stroke-linecap="round" stroke-linejoin="round" stroke-width="2"/><path d="m268.675 241.352-2.268-30.841 18.78-19.89" stroke="#050505" stroke-linecap="round" stroke-linejoin="round" stroke-width="2"/><path d="m266.407 210.511-30.092 3.649" stroke="#050505" stroke-linecap="round" stroke-linejoin="round" stroke-width="2"/><path d="m250.838 277.89-12.84 64.464 16.605-1.216 6.327-65.345z" fill="#fff"/><path d="m278.629 324.226-51.887 5.481-3.692-50.231 51.886-5.481z" stroke="#050505" stroke-linecap="round" stroke-linejoin="round" stroke-width="2"/><path d="m226.742 329.707-13.979 14.865 47.956-4.975 17.909-15.371" stroke="#050505" stroke-linecap="round" stroke-linejoin="round" stroke-width="2"/><path d="m212.763 344.572-3.446-46.882 13.732-18.214" stroke="#050505" stroke-linecap="round" stroke-linejoin="round" stroke-width="2"/><path d="m256.868 326.524-2.265-30.84 18.778-19.891" stroke="#050505" stroke-linecap="round" stroke-linejoin="round" stroke-width="2"/><path d="m254.603 295.684-30.093 3.648" stroke="#050505" stroke-linecap="round" stroke-linejoin="round" stroke-width="2"/><path d="m223.71 164.125 22.438 2.371-20.756-52.801-9.348-11.232-11.139-1.388-2.776 7.355 16.535 51.532z" fill="#fff"/><path d="m253.395 114.705-50.204-3.802-3.693 50.231 50.205 3.802z" stroke="#050505" stroke-linecap="round" stroke-linejoin="round" stroke-width="2"/><path d="m203.19 110.903-8.078-11.3793 43.738 3.3573 15.14 11.752" stroke="#050505" stroke-linecap="round" stroke-linejoin="round" stroke-width="2"/><path d="m194.258 99.396-3.446 46.881 8.686 14.857" stroke="#050505" stroke-linecap="round" stroke-linejoin="round" stroke-width="2"/><path d="m241.445 114.944-2.594 34.945 10.979 14.928" stroke="#050505" stroke-linecap="round" stroke-linejoin="round" stroke-width="2"/><path d="m238.85 149.889-37.892-3.576" stroke="#050505" stroke-linecap="round" stroke-linejoin="round" stroke-width="2"/><path d="m223.668 141.434 32.723-31.538 2.774 3.98-35.833 37.765-17.401-24.71 5.941-3.946z" fill="#fff" stroke="#050505" stroke-linecap="round" stroke-linejoin="round" stroke-width="2"/><path d="m241.197 309.936 28.675-38.699 8.336 5.202-37.421 45.901-23.805-26.393 5.046-6.715z" fill="#fff" stroke="#050505" stroke-linecap="round" stroke-linejoin="round" stroke-width="2"/><path d="m237.168 189.128 21.869 22.656-21.464 21.261 4.251 4.143 22.26-19.741 21.357 16.991 3.876-5.662-21.869-16.992 20.187-24.543-5.047-3.776-19.142 23.971-21.166-22.204-5.112 3.27" fill="#fff"/><path d="m237.168 189.128 21.869 22.656-21.464 21.261 4.251 4.143 22.26-19.741 21.357 16.991 3.876-5.662-21.869-16.992 20.187-24.543-5.047-3.776-19.142 23.971-21.166-22.204-5.112 3.27" stroke="#050505" stroke-linecap="round" stroke-linejoin="round" stroke-width="2"/></g></svg>