<svg width="25" height="25" viewBox="0 0 25 25" fill="none" xmlns="http://www.w3.org/2000/svg">
<path d="M12.5 25C19.4036 25 25 19.4036 25 12.5C25 5.59644 19.4036 0 12.5 0C5.59644 0 0 5.59644 0 12.5C0 19.4036 5.59644 25 12.5 25Z" fill="white"/>
<path d="M16.3804 7.771C16.2105 7.771 16.0444 7.82138 15.9031 7.91579C15.7618 8.0102 15.6517 8.14439 15.5867 8.30139C15.5216 8.45839 15.5046 8.63113 15.5377 8.7978C15.5709 8.96447 15.6528 9.11757 15.7729 9.23773C15.8931 9.35789 16.0462 9.43972 16.2128 9.47287C16.3795 9.50602 16.5523 9.48901 16.7093 9.42398C16.8663 9.35895 17.0004 9.24883 17.0948 9.10753C17.1893 8.96624 17.2396 8.80011 17.2396 8.63018C17.2397 8.51733 17.2176 8.40556 17.1744 8.30127C17.1313 8.19699 17.068 8.10224 16.9882 8.02244C16.9084 7.94264 16.8136 7.87935 16.7093 7.8362C16.6051 7.79306 16.4933 7.7709 16.3804 7.771Z" fill="#2E303D"/>
<path d="M12.5601 8.87256C11.8461 8.87256 11.1482 9.08428 10.5545 9.48094C9.9609 9.87759 9.4982 10.4414 9.22497 11.101C8.95175 11.7606 8.88028 12.4864 9.01956 13.1867C9.15885 13.8869 9.50264 14.5302 10.0075 15.035C10.5123 15.5399 11.1556 15.8837 11.8558 16.023C12.5561 16.1623 13.2819 16.0908 13.9415 15.8175C14.6011 15.5443 15.1649 15.0816 15.5616 14.488C15.9582 13.8944 16.17 13.1964 16.17 12.4825C16.1688 11.5254 15.7881 10.6079 15.1114 9.93112C14.4347 9.25437 13.5171 8.87368 12.5601 8.87256ZM12.5601 14.7944C12.1028 14.7944 11.6558 14.6588 11.2757 14.4047C10.8955 14.1507 10.5991 13.7896 10.4241 13.3672C10.2491 12.9447 10.2034 12.4799 10.2926 12.0314C10.3818 11.583 10.602 11.171 10.9253 10.8477C11.2486 10.5244 11.6606 10.3042 12.1091 10.215C12.5575 10.1258 13.0223 10.1715 13.4448 10.3465C13.8672 10.5215 14.2283 10.8178 14.4824 11.198C14.7364 11.5782 14.872 12.0252 14.872 12.4825C14.8712 13.0954 14.6274 13.683 14.194 14.1164C13.7606 14.5498 13.173 14.7936 12.5601 14.7944Z" fill="#2E303D"/>
<path d="M15.4259 19.8103H9.57406C8.40693 19.8088 7.28806 19.3444 6.46283 18.5191C5.63761 17.6937 5.17343 16.5748 5.17212 15.4076V9.55647C5.17343 8.38934 5.63761 7.27037 6.46283 6.44502C7.28806 5.61966 8.40693 5.1553 9.57406 5.15381H15.4259C16.5931 5.1553 17.7119 5.61966 18.5372 6.44502C19.3624 7.27037 19.8266 8.38934 19.8279 9.55647V15.4076C19.8266 16.5748 19.3624 17.6937 18.5372 18.5191C17.7119 19.3444 16.5931 19.8088 15.4259 19.8103ZM9.57406 6.53234C8.77248 6.53327 8.00402 6.85211 7.43722 7.41891C6.87042 7.98571 6.55157 8.7542 6.55064 9.55577V15.4069C6.55157 16.2085 6.87039 16.9771 7.43718 17.544C8.00396 18.1109 8.77242 18.4299 9.57406 18.431H15.4259C16.2276 18.4299 16.996 18.1109 17.5628 17.544C18.1296 16.9771 18.4484 16.2085 18.4494 15.4069V9.55647C18.4486 8.75477 18.1299 7.98612 17.563 7.41917C16.9962 6.85221 16.2276 6.53327 15.4259 6.53234H9.57406Z" fill="#2E303D"/>
</svg>
