<svg width="45" height="46" viewBox="0 0 45 46" fill="none" xmlns="http://www.w3.org/2000/svg">
<path d="M31.455 33.7175C30.4479 35.2125 28.8255 36.5779 26.8304 37.5719C24.6776 38.6394 22.3077 39.1963 19.9048 39.1992C16.3716 39.1992 13.1406 38.2822 11.0898 36.6898C8.97391 35.0467 8.09523 32.6844 8.09523 29.8676C8.09392 24.0602 13.1186 20.0797 20.8835 20.0797C24.6688 20.0797 28.7798 20.9934 31.455 22.3633V19.9492C31.455 15.3811 28.3228 12.3794 23.1676 12.3794C19.4637 12.3794 16.1899 13.4514 14.2137 15.0062C11.3598 16.5465 8.87215 18.685 6.92103 21.2755C6.00191 22.5109 5.15331 23.7972 4.37929 25.1283C3.01886 27.4245 2.45511 30.1058 2.77567 32.7554C3.09622 35.405 4.28313 37.8745 6.15189 39.78C6.8576 40.4913 7.62113 41.1429 8.43462 41.7278C12.128 44.3831 17.6023 45.6319 22.4988 45.6319C25.573 45.6391 28.618 45.0346 31.4563 43.8535L31.455 33.7175Z" fill="#DB8E76"/>
<path d="M18.1076 24.9654C15.1986 25.7117 12.5649 27.4859 12.5649 29.7371C12.5649 30.7161 13.8487 31.5664 14.4933 32.247C15.5677 33.3813 17.4898 34.044 20.1001 34.044C22.3801 34.0237 24.6246 33.4766 26.6582 32.4453C28.6646 31.4337 30.3776 29.9982 31.4543 28.3018V26.7354C28.8443 25.3649 24.7987 24.5814 21.4053 24.5814C20.2944 24.5713 19.1865 24.7003 18.1076 24.9654V24.9654Z" fill="#DB8E76"/>
<path d="M39.73 7.62758C35.6161 3.13304 29.0718 0 22.4987 0C16.857 0 11.7 2.70565 7.75078 6.13605C5.32604 8.23632 3.37961 10.8319 2.04261 13.7479C0.705606 16.6638 0.00909523 19.8325 0 23.0403C1.68118 21.0502 3.09653 19.234 4.25943 17.918C11.1029 10.1725 15.4937 7.09879 23.2329 7.15895C27.0613 7.18863 30.5797 7.88081 32.943 9.72617C35.8163 11.9698 37.1323 15.7238 37.1323 19.9491V40.4122C40.0886 37.9503 42.3387 34.748 43.653 31.1323C44.5473 28.5599 45.0027 25.8553 45 23.1318C45 17.2768 43.3939 11.6301 39.73 7.62758Z" fill="#DB8E76"/>
</svg>
