<svg width="25" height="25" viewBox="0 0 25 25" fill="none" xmlns="http://www.w3.org/2000/svg">
<path d="M12.5 25C19.4036 25 25 19.4036 25 12.5C25 5.59644 19.4036 0 12.5 0C5.59644 0 0 5.59644 0 12.5C0 19.4036 5.59644 25 12.5 25Z" fill="#2E303D"/>
<path d="M16.3805 7.77087C16.2105 7.77087 16.0444 7.82126 15.9031 7.91567C15.7618 8.01008 15.6517 8.14427 15.5867 8.30127C15.5217 8.45827 15.5046 8.63101 15.5378 8.79768C15.5709 8.96435 15.6528 9.11745 15.7729 9.23761C15.8931 9.35777 16.0462 9.4396 16.2129 9.47275C16.3795 9.5059 16.5523 9.48889 16.7093 9.42386C16.8663 9.35883 17.0005 9.2487 17.0949 9.10741C17.1893 8.96612 17.2397 8.79999 17.2397 8.63006C17.2397 8.5172 17.2176 8.40543 17.1744 8.30115C17.1313 8.19687 17.068 8.10212 16.9882 8.02232C16.9084 7.94252 16.8137 7.87923 16.7094 7.83608C16.6051 7.79293 16.4933 7.77078 16.3805 7.77087Z" fill="white"/>
<path d="M12.56 8.87244C11.8461 8.87244 11.1482 9.08415 10.5545 9.48081C9.96087 9.87747 9.49817 10.4413 9.22494 11.1009C8.95172 11.7605 8.88024 12.4863 9.01953 13.1866C9.15882 13.8868 9.50261 14.5301 10.0075 15.0349C10.5123 15.5398 11.1555 15.8836 11.8558 16.0229C12.556 16.1621 13.2819 16.0906 13.9415 15.8174C14.6011 15.5442 15.1649 15.0815 15.5616 14.4879C15.9582 13.8942 16.1699 13.1963 16.1699 12.4823C16.1688 11.5253 15.7881 10.6077 15.1114 9.93099C14.4346 9.25425 13.5171 8.87356 12.56 8.87244ZM12.56 14.7942C12.1028 14.7942 11.6558 14.6586 11.2756 14.4046C10.8954 14.1506 10.5991 13.7895 10.4241 13.3671C10.2491 12.9446 10.2034 12.4798 10.2926 12.0313C10.3818 11.5828 10.6019 11.1709 10.9253 10.8476C11.2486 10.5242 11.6606 10.304 12.109 10.2148C12.5575 10.1256 13.0223 10.1714 13.4448 10.3464C13.8672 10.5214 14.2283 10.8177 14.4823 11.1979C14.7364 11.5781 14.8719 12.0251 14.8719 12.4823C14.8712 13.0953 14.6274 13.6829 14.194 14.1163C13.7606 14.5497 13.173 14.7935 12.56 14.7942Z" fill="white"/>
<path d="M15.4259 19.8103H9.57405C8.40691 19.8088 7.28804 19.3444 6.46282 18.5191C5.63759 17.6937 5.17341 16.5748 5.1721 15.4076V9.55647C5.17341 8.38934 5.63759 7.27037 6.46282 6.44502C7.28804 5.61966 8.40691 5.1553 9.57405 5.15381H15.4259C16.5931 5.1553 17.7119 5.61966 18.5372 6.44502C19.3624 7.27037 19.8266 8.38934 19.8279 9.55647V15.4076C19.8266 16.5748 19.3624 17.6937 18.5372 18.5191C17.7119 19.3444 16.5931 19.8088 15.4259 19.8103ZM9.57405 6.53234C8.77247 6.53327 8.004 6.85211 7.4372 7.41891C6.8704 7.98571 6.55156 8.7542 6.55062 9.55577V15.4069C6.55156 16.2085 6.87038 16.9771 7.43716 17.544C8.00394 18.1109 8.7724 18.4299 9.57405 18.431H15.4259C16.2276 18.4299 16.996 18.1109 17.5628 17.544C18.1296 16.9771 18.4484 16.2085 18.4493 15.4069V9.55647C18.4486 8.75477 18.1298 7.98612 17.563 7.41917C16.9962 6.85221 16.2276 6.53327 15.4259 6.53234H9.57405Z" fill="white"/>
</svg>
