<svg width="230" height="35" viewBox="0 0 230 35" fill="none" xmlns="http://www.w3.org/2000/svg">
<g clip-path="url(#clip0_501_822)">
<path d="M56.012 16.9002V25.1717H53.4741V23.0672C52.5698 24.4096 50.5571 25.5228 48.3109 25.5228C45.1022 25.5228 43.0312 23.8272 43.0312 21.3406C43.0312 18.7394 45.2774 16.9565 48.751 16.9565C50.3818 16.9481 51.9948 17.2972 53.4767 17.9794V16.9002C53.4767 14.8541 52.0767 13.5096 49.7718 13.5096C47.7302 13.5096 45.9797 14.2402 45.2506 15.2046L43.7336 13.714C44.8131 12.1651 47.2633 11.1711 49.8012 11.1711C53.5901 11.1711 56.012 13.4512 56.012 16.9002ZM53.4741 20.6415V19.9398C52.0653 19.2924 50.5317 18.9631 48.9818 18.9753C46.7939 18.9753 45.4521 19.9398 45.4521 21.2843C45.4521 22.4538 46.5316 23.2133 48.3985 23.2133C50.4102 23.2133 52.5106 22.161 53.4731 20.6415H53.4741Z" fill="#2E303D"/>
<path d="M67.737 11.6972L67.3284 14.094C66.7092 13.7951 66.0323 13.6355 65.3451 13.6262C62.632 13.6262 61.553 16.5785 61.553 20.1737V25.1717H58.9858V11.5217H61.553V14.6196C62.2528 12.2228 63.5658 11.1706 65.3744 11.1706C66.1926 11.1552 67.0026 11.3358 67.737 11.6972Z" fill="#2E303D"/>
<path d="M77.1679 11.5215V13.7138H74.2214V25.1715H71.6836V13.7138H69.2334V11.5215H71.6836V6.37744H74.2214V11.5215H77.1679Z" fill="#2E303D"/>
<path d="M92.0952 19.4431H81.0103C81.3895 21.8698 83.1394 23.1255 85.4732 23.1255C86.2638 23.1536 87.0477 22.9709 87.7448 22.596C88.4419 22.2212 89.0272 21.6677 89.441 20.9921L91.6289 21.8698C91.0365 23.0058 90.1362 23.9513 89.0315 24.5975C87.9268 25.2437 86.6626 25.5644 85.3841 25.5228C81.5044 25.5228 78.3833 22.6288 78.3833 18.3031C78.3833 13.9773 81.5044 11.1711 85.3841 11.1711C89.2637 11.1711 92.1519 13.9773 92.1519 18.3031C92.1535 18.6831 92.1241 19.0631 92.0952 19.4431ZM89.6151 17.2508C89.5254 16.2068 89.0338 15.2387 88.2445 14.5514C87.4551 13.864 86.4299 13.5113 85.3856 13.5679C83.0812 13.5679 81.4477 14.7957 81.0391 17.2508H89.6151Z" fill="#2E303D"/>
<path d="M94.9526 25.1716V4.09741H97.493V25.1716H94.9526Z" fill="#2E303D"/>
<path d="M101.307 25.1716V4.09741H103.845V25.1716H101.307Z" fill="#2E303D"/>
<path d="M120.384 19.4431H109.299C109.679 21.8698 111.428 23.1255 113.762 23.1255C114.552 23.1536 115.336 22.9708 116.033 22.596C116.73 22.2212 117.316 21.6677 117.729 20.9921L119.917 21.8698C119.325 23.0057 118.425 23.951 117.32 24.5972C116.216 25.2434 114.952 25.5642 113.674 25.5228C109.794 25.5228 106.673 22.6288 106.673 18.3031C106.673 13.9773 109.794 11.1711 113.674 11.1711C117.553 11.1711 120.442 13.9773 120.442 18.3031C120.442 18.6831 120.414 19.0631 120.384 19.4431ZM117.904 17.2508C117.814 16.2068 117.323 15.2387 116.533 14.5514C115.744 13.864 114.718 13.5113 113.674 13.5679C111.37 13.5679 109.737 14.7957 109.328 17.2508H117.904Z" fill="#2E303D"/>
<path d="M129.688 18.3324C129.688 14.0062 133.102 11.171 137.011 11.171C137.978 11.152 138.94 11.3343 139.833 11.7066C140.727 12.0789 141.534 12.633 142.203 13.3339L140.598 15.0001C140.142 14.5367 139.596 14.1709 138.994 13.9247C138.392 13.6785 137.747 13.5571 137.097 13.5678C136.464 13.5564 135.834 13.6715 135.246 13.9066C134.657 14.1416 134.121 14.4918 133.669 14.9366C133.217 15.3815 132.858 15.9122 132.613 16.4977C132.368 17.0832 132.241 17.7117 132.241 18.3466C132.241 18.9815 132.368 19.6101 132.613 20.1955C132.858 20.781 133.217 21.3117 133.669 21.7566C134.121 22.2014 134.657 22.5516 135.246 22.7867C135.834 23.0217 136.464 23.1368 137.097 23.1254C137.747 23.1362 138.392 23.0148 138.994 22.7688C139.596 22.5227 140.141 22.1569 140.598 21.6937L142.203 23.3598C141.538 24.066 140.732 24.6237 139.837 24.9964C138.942 25.3691 137.979 25.5485 137.011 25.5227C133.1 25.5227 129.688 22.6581 129.688 18.3324Z" fill="#2E303D"/>
<path d="M153.495 11.6972L153.086 14.094C152.467 13.795 151.79 13.6354 151.103 13.6262C148.39 13.6262 147.311 16.5785 147.311 20.1736V25.1716H144.746V11.5216H147.313V14.6196C148.013 12.2228 149.325 11.1705 151.134 11.1705C151.952 11.1555 152.761 11.336 153.495 11.6972Z" fill="#2E303D"/>
<path d="M168.176 19.4431H157.091C157.47 21.8698 159.22 23.1255 161.554 23.1255C162.344 23.1535 163.128 22.9708 163.825 22.596C164.522 22.2212 165.108 21.6677 165.521 20.992L167.709 21.8698C167.117 23.0057 166.217 23.9513 165.113 24.5976C164.008 25.244 162.744 25.565 161.466 25.5238C157.587 25.5238 154.466 22.6298 154.466 18.3041C154.466 13.9783 157.587 11.1721 161.466 11.1721C165.345 11.1721 168.234 13.9783 168.234 18.3041C168.234 18.683 168.206 19.0631 168.176 19.4431ZM165.696 17.2508C165.606 16.2067 165.115 15.2386 164.325 14.5513C163.536 13.864 162.51 13.5113 161.466 13.5678C159.162 13.5678 157.529 14.7957 157.12 17.2508H165.696Z" fill="#2E303D"/>
<path d="M182.061 11.5218H184.599V25.1718H182.061V22.745C181.549 23.6084 180.817 24.3203 179.941 24.8081C179.065 25.2959 178.075 25.5422 177.073 25.5218C173.514 25.5218 170.393 22.5112 170.393 18.3315C170.393 14.2975 173.34 11.1702 177.19 11.1702C179.231 11.1702 181.158 12.0479 182.061 13.6547V11.5218ZM182.061 18.3326C182.058 17.0901 181.572 15.8977 180.706 15.0083C179.84 14.1188 178.663 13.6022 177.423 13.568C174.944 13.568 172.96 15.7603 172.96 18.3326C172.96 20.9338 174.944 23.1256 177.453 23.1256C178.069 23.1142 178.678 22.9812 179.243 22.7342C179.809 22.4871 180.32 22.1309 180.748 21.6858C181.176 21.2407 181.512 20.7154 181.737 20.1401C181.963 19.5647 182.073 18.9505 182.061 18.3326Z" fill="#2E303D"/>
<path d="M194.662 11.5215V13.7138H191.717V25.1715H189.179V13.7138H186.729V11.5215H189.179V6.37744H191.717V11.5215H194.662Z" fill="#2E303D"/>
<path d="M196.416 6.49474C196.442 6.03547 196.642 5.6035 196.976 5.28749C197.309 4.97148 197.751 4.79541 198.21 4.79541C198.669 4.79541 199.111 4.97148 199.444 5.28749C199.778 5.6035 199.978 6.03547 200.004 6.49474C199.978 6.95402 199.778 7.38598 199.444 7.70199C199.111 8.018 198.669 8.19407 198.21 8.19407C197.751 8.19407 197.309 8.018 196.976 7.70199C196.642 7.38598 196.442 6.95402 196.416 6.49474ZM196.941 25.1716V11.5216H199.479V25.1716H196.941Z" fill="#2E303D"/>
<path d="M212.731 11.5217H215.472L209.785 25.1717H207.305L201.646 11.5217H204.358L208.559 21.9277L212.731 11.5217Z" fill="#2E303D"/>
<path d="M229.941 19.4431H218.857C219.236 21.8698 220.986 23.1255 223.32 23.1255C224.11 23.1535 224.894 22.9708 225.591 22.596C226.288 22.2212 226.874 21.6677 227.288 20.992L229.475 21.8698C228.883 23.0056 227.983 23.951 226.879 24.5974C225.775 25.2438 224.511 25.5649 223.233 25.5238C219.353 25.5238 216.232 22.6298 216.232 18.3041C216.232 13.9783 219.353 11.1721 223.233 11.1721C227.113 11.1721 230.001 13.9783 230.001 18.3041C230 18.683 229.971 19.0631 229.941 19.4431ZM227.462 17.2508C227.372 16.2068 226.881 15.2388 226.091 14.5515C225.302 13.8641 224.276 13.5114 223.232 13.5678C220.927 13.5678 219.294 14.7957 218.886 17.2508H227.462Z" fill="#2E303D"/>
<path d="M23.8066 25.5671C22.9051 26.8236 21.6992 27.8294 20.3027 28.49C18.6735 29.2993 16.88 29.7214 15.0616 29.7235C12.3883 29.7235 9.94272 29.0285 8.39117 27.8209C6.78965 26.575 6.12389 24.7839 6.12389 22.6479C6.12389 18.2441 9.92623 15.2257 15.8026 15.2257C18.5648 15.2106 21.2968 15.8017 23.8066 16.9575V15.1282C23.8066 11.6642 21.4363 9.3877 17.535 9.3877C14.7329 9.3877 12.2548 10.2009 10.7595 11.3786C8.59959 12.547 6.71694 14.1689 5.24016 16.1334C4.54383 17.0693 3.90076 18.0437 3.314 19.0522C2.2841 20.7931 1.8571 22.8263 2.09938 24.8354C2.34167 26.8446 3.23967 28.7173 4.65376 30.1624C5.18785 30.7015 5.76558 31.1955 6.38102 31.6391C9.17596 33.6527 13.3194 34.5997 17.0244 34.5997C19.3521 34.6056 21.6576 34.1472 23.8066 33.251V25.5671Z" fill="#DB8E76"/>
<path d="M13.7032 18.9303C11.5019 19.4982 9.50928 20.8407 9.50928 22.5487C9.50928 23.2911 10.4806 23.936 10.9686 24.4518C11.7817 25.312 13.2359 25.8149 15.2115 25.8149C16.9371 25.7995 18.6357 25.3845 20.1748 24.6026C21.6428 23.8975 22.8965 22.8127 23.8066 21.4603V20.2727C21.8289 19.2334 18.7675 18.6391 16.1993 18.6391C15.3584 18.6315 14.5199 18.7293 13.7032 18.9303Z" fill="#DB8E76"/>
<path d="M30.0662 5.78279C28.3908 3.99192 26.373 2.55705 24.1328 1.5636C21.8925 0.570141 19.4758 0.0383936 17.0263 0C12.7566 0 8.85426 2.05186 5.86557 4.65257C4.03058 6.24514 2.55755 8.21329 1.54575 10.4244C0.533939 12.6355 0.00685298 15.0383 0 17.4708C1.27174 15.9621 2.34355 14.585 3.22315 13.587C8.40235 7.71332 11.7255 5.38265 17.5818 5.42912C20.4792 5.45132 23.1418 5.97642 24.9303 7.37565C27.1049 9.0795 28.1004 11.9234 28.1004 15.1277V30.6431C30.3378 28.7763 32.0407 26.348 33.0354 23.6062C33.7121 21.6555 34.0567 19.6046 34.0546 17.5394C34.0546 13.1006 32.839 8.81876 30.0662 5.78279Z" fill="#DB8E76"/>
</g>
<defs>
<clipPath id="clip0_501_822">
<rect width="230" height="34.6018" fill="white"/>
</clipPath>
</defs>
</svg>
