<svg width="600" height="353" viewBox="0 0 600 353" fill="none" xmlns="http://www.w3.org/2000/svg">
<path d="M536.111 170.116C512.536 153.199 484.286 145.013 458.278 132.759C433.264 120.974 415.466 102.04 393.087 86.4365C356.519 60.9408 314.252 41.8243 271.238 30.157C227.742 18.3602 174.609 11.8252 134.961 37.9757C115.46 50.8371 99.5895 70.7852 93.1227 93.3121C85.428 120.117 92.958 147.505 96.649 174.291C99.6479 196.058 85.6172 208.066 69.0857 220.435C30.3783 249.395 31.4535 301.799 55.3712 339.358H553.533C583.115 285.98 596.124 213.183 536.111 170.116Z" fill="#D3DFFF"/>
<path d="M57.8578 191.23C68.0554 191.23 76.3221 182.997 76.3221 172.84C76.3221 162.683 68.0554 154.449 57.8578 154.449C47.6603 154.449 39.3936 162.683 39.3936 172.84C39.3936 182.997 47.6603 191.23 57.8578 191.23Z" fill="#D3DFFF"/>
<path d="M495.077 108.753C510.151 108.753 522.371 96.5816 522.371 81.5681C522.371 66.5545 510.151 54.3835 495.077 54.3835C480.004 54.3835 467.784 66.5545 467.784 81.5681C467.784 96.5816 480.004 108.753 495.077 108.753Z" fill="white"/>
<path d="M69.257 125.635C69.9628 121.191 66.9179 117.019 62.4561 116.316C57.9943 115.613 53.8051 118.646 53.0993 123.09C52.3935 127.534 55.4383 131.706 59.9001 132.409C64.362 133.112 68.5512 130.079 69.257 125.635Z" fill="#D3DFFF"/>
<path d="M519.357 136.407C523.53 134.685 525.512 129.919 523.784 125.763C522.055 121.606 517.27 119.632 513.097 121.354C508.923 123.075 506.941 127.841 508.67 131.998C510.399 136.154 515.183 138.128 519.357 136.407Z" fill="#F6F5F5"/>
<path d="M38.7744 338.094C15.0842 317.963 14.8665 282.74 25.1596 256.763C36.6207 227.838 63.4853 204.029 98.8656 191.44C99.725 191.136 100.585 190.835 101.445 190.536L101.764 191.452C100.906 191.749 100.048 192.049 99.192 192.352C64.076 204.847 37.4215 228.454 26.0635 257.119C15.897 282.776 16.0794 317.537 39.4055 337.358L38.7744 338.094Z" fill="#DADADA"/>
<path d="M537.391 339.221L536.527 338.778C554.022 304.905 564.386 270.745 566.495 239.992C568.575 209.674 562.536 184.667 549.032 167.675C536.778 152.255 512.393 136.294 465.81 147.821L465.576 146.882C512.658 135.231 537.362 151.432 549.794 167.074C563.451 184.257 569.561 209.495 567.464 240.058C565.346 270.942 554.947 305.232 537.391 339.221Z" fill="#DADADA"/>
<path d="M147.897 68.4246L146.956 68.1844C147.021 67.9301 148.619 61.8638 153.959 53.8428C158.879 46.4539 168.038 35.9931 183.736 28.1131C201.713 19.089 224.341 15.2608 250.99 16.7326C284.337 18.5758 324.103 28.7745 369.182 47.0463L368.816 47.9423C323.836 29.7116 284.175 19.5364 250.936 17.6991C224.455 16.2343 201.996 20.0304 184.173 28.9776C168.665 36.7616 159.623 47.0869 154.768 54.3779C149.518 62.263 147.913 68.3641 147.897 68.4246Z" fill="#DADADA"/>
<path d="M137.328 69.1368H484.828C486.468 69.1368 488.04 69.7854 489.199 70.9399C490.358 72.0944 491.009 73.6602 491.009 75.2929V318.821C491.009 320.454 490.358 322.02 489.199 323.174C488.04 324.329 486.468 324.977 484.828 324.977H137.328C135.689 324.977 134.117 324.329 132.958 323.174C131.799 322.02 131.148 320.454 131.148 318.821V75.2927C131.148 74.4843 131.308 73.6838 131.618 72.9369C131.929 72.19 132.384 71.5114 132.958 70.9398C133.532 70.3681 134.213 69.9147 134.963 69.6054C135.713 69.296 136.517 69.1368 137.328 69.1368Z" fill="#D3DFFF"/>
<path d="M480.077 89.491H142.078V293.574H480.077V89.491Z" fill="white"/>
<path d="M480.562 294.057H141.592V89.007H480.562L480.562 294.057ZM142.564 293.089H479.591V89.975H142.564V293.089Z" fill="#86A7FF"/>
<path d="M480.077 76.8008H142.078V89.491H480.077V76.8008Z" fill="white"/>
<path d="M480.562 89.975H141.592V76.3168H480.562L480.562 89.975ZM142.564 89.007H479.591V77.2848H142.564V89.007Z" fill="#86A7FF"/>
<path d="M157.966 86.0778C157.384 86.0777 156.815 85.9057 156.331 85.5835C155.847 85.2613 155.47 84.8034 155.247 84.2676C155.024 83.7319 154.966 83.1424 155.08 82.5736C155.193 82.0049 155.474 81.4825 155.885 81.0725C156.297 80.6625 156.822 80.3833 157.393 80.2702C157.964 80.1571 158.555 80.2152 159.093 80.4371C159.631 80.6591 160.091 81.0349 160.414 81.5171C160.738 81.9993 160.91 82.5662 160.91 83.146C160.909 83.9234 160.599 84.6686 160.047 85.2182C159.495 85.7679 158.747 86.077 157.966 86.0778ZM157.966 81.1819C157.576 81.182 157.195 81.2972 156.871 81.5131C156.547 81.7289 156.294 82.0356 156.145 82.3945C155.996 82.7534 155.957 83.1482 156.033 83.5291C156.109 83.9101 156.297 84.26 156.573 84.5346C156.848 84.8092 157.2 84.9963 157.582 85.072C157.965 85.1478 158.361 85.1089 158.721 84.9603C159.082 84.8117 159.39 84.56 159.606 84.237C159.823 83.9141 159.939 83.5344 159.939 83.146C159.938 82.6253 159.73 82.126 159.36 81.7577C158.991 81.3895 158.489 81.1824 157.966 81.1819Z" fill="#86A7FF"/>
<path d="M167.797 86.0778C167.215 86.0778 166.646 85.9059 166.161 85.5838C165.677 85.2617 165.3 84.8038 165.077 84.2681C164.854 83.7323 164.796 83.1428 164.909 82.574C165.023 82.0052 165.303 81.4828 165.715 81.0727C166.127 80.6626 166.651 80.3833 167.222 80.2702C167.793 80.1571 168.385 80.2151 168.923 80.4371C169.461 80.659 169.921 81.0348 170.244 81.517C170.568 81.9992 170.74 82.5661 170.74 83.146C170.739 83.9233 170.429 84.6684 169.877 85.218C169.325 85.7676 168.577 86.0768 167.797 86.0778ZM167.797 81.1819C167.407 81.1818 167.026 81.297 166.701 81.5127C166.377 81.7285 166.124 82.0352 165.975 82.394C165.826 82.7529 165.787 83.1478 165.863 83.5287C165.939 83.9097 166.127 84.2597 166.402 84.5344C166.678 84.809 167.029 84.9961 167.412 85.072C167.794 85.1478 168.191 85.1089 168.551 84.9603C168.911 84.8117 169.219 84.56 169.436 84.2371C169.653 83.9141 169.769 83.5345 169.769 83.146C169.768 82.6253 169.56 82.1261 169.191 81.7579C168.821 81.3896 168.32 81.1825 167.797 81.1819Z" fill="#86A7FF"/>
<path d="M177.628 86.0778C177.045 86.0778 176.476 85.9059 175.992 85.5837C175.508 85.2616 175.131 84.8037 174.908 84.2679C174.685 83.7322 174.627 83.1426 174.74 82.5739C174.854 82.0051 175.134 81.4827 175.546 81.0726C175.957 80.6626 176.482 80.3833 177.053 80.2702C177.624 80.1571 178.216 80.2151 178.754 80.4371C179.292 80.659 179.752 81.0349 180.075 81.517C180.398 81.9992 180.571 82.5661 180.571 83.146C180.57 83.9233 180.26 84.6685 179.708 85.2181C179.156 85.7677 178.408 86.0768 177.628 86.0778ZM177.628 81.1819C177.238 81.1818 176.856 81.297 176.532 81.5127C176.208 81.7285 175.955 82.0352 175.806 82.394C175.656 82.7529 175.617 83.1478 175.693 83.5287C175.769 83.9097 175.957 84.2597 176.233 84.5344C176.509 84.809 176.86 84.9961 177.242 85.072C177.625 85.1478 178.021 85.1089 178.382 84.9603C178.742 84.8117 179.05 84.56 179.267 84.2371C179.483 83.9141 179.599 83.5345 179.599 83.146C179.599 82.6253 179.391 82.1261 179.021 81.7579C178.652 81.3896 178.15 81.1825 177.628 81.1819Z" fill="#86A7FF"/>
<path d="M508.75 321.135H113.405V339.396H508.75V321.135Z" fill="#D3DFFF"/>
<path d="M509.296 339.94H112.859V320.592H509.296V339.94ZM113.949 338.853H508.205V321.679H113.95L113.949 338.853Z" fill="#86A7FF"/>
<path d="M328.483 302.246H293.672C291.49 302.246 289.722 304.007 289.722 306.179V308.528C289.722 310.701 291.49 312.462 293.672 312.462H328.483C330.665 312.462 332.433 310.701 332.433 308.528V306.179C332.433 304.007 330.665 302.246 328.483 302.246Z" fill="white"/>
<path d="M327.945 312.946H294.21C292.892 312.944 291.627 312.422 290.695 311.493C289.763 310.565 289.238 309.305 289.237 307.992V306.716C289.238 305.403 289.763 304.143 290.695 303.215C291.627 302.286 292.892 301.763 294.21 301.762H327.945C329.264 301.763 330.528 302.286 331.461 303.215C332.393 304.143 332.918 305.403 332.919 306.716V307.992C332.918 309.305 332.393 310.565 331.461 311.493C330.528 312.422 329.264 312.944 327.945 312.946ZM294.21 302.73C293.149 302.731 292.132 303.151 291.382 303.899C290.632 304.646 290.209 305.659 290.208 306.716V307.992C290.209 309.049 290.632 310.062 291.382 310.809C292.132 311.557 293.149 311.977 294.21 311.978H327.945C329.006 311.977 330.023 311.556 330.774 310.809C331.524 310.062 331.946 309.049 331.947 307.992V306.716C331.946 305.659 331.524 304.646 330.774 303.899C330.023 303.151 329.006 302.731 327.945 302.73H294.21Z" fill="#86A7FF"/>
<path d="M432.162 179.47H189.993C185.785 179.465 181.751 177.798 178.775 174.834C175.8 171.871 174.126 167.853 174.122 163.661V162.605C174.126 158.414 175.8 154.396 178.775 151.432C181.751 148.469 185.785 146.802 189.993 146.797H432.162C436.37 146.801 440.404 148.468 443.38 151.432C446.355 154.396 448.029 158.414 448.034 162.605V163.661C448.029 167.853 446.355 171.871 443.38 174.834C440.404 177.798 436.37 179.465 432.162 179.47ZM189.993 147.765C186.043 147.77 182.255 149.335 179.462 152.117C176.669 154.899 175.098 158.671 175.093 162.605V163.661C175.098 167.596 176.669 171.368 179.462 174.15C182.255 176.932 186.043 178.497 189.993 178.501H432.162C436.112 178.497 439.9 176.932 442.693 174.15C445.486 171.368 447.057 167.596 447.062 163.661V162.605C447.057 158.671 445.486 154.899 442.693 152.117C439.9 149.335 436.112 147.77 432.162 147.765H189.993Z" fill="#86A7FF"/>
<path d="M218.741 157.227H189.458C186.76 157.227 184.573 159.406 184.573 162.093V164.174C184.573 166.861 186.76 169.04 189.458 169.04H218.741C221.44 169.04 223.627 166.861 223.627 164.174V162.093C223.627 159.406 221.44 157.227 218.741 157.227Z" fill="#D3DFFF"/>
<path d="M266.188 157.227H240.59C237.856 157.227 235.64 159.435 235.64 162.158V164.109C235.64 166.832 237.856 169.04 240.59 169.04H266.188C268.922 169.04 271.139 166.832 271.139 164.109V162.158C271.139 159.435 268.922 157.227 266.188 157.227Z" fill="#D3DFFF"/>
<path d="M320.742 157.227H286.251C283.369 157.227 281.033 159.554 281.033 162.425V163.842C281.033 166.713 283.369 169.04 286.251 169.04H320.742C323.624 169.04 325.96 166.713 325.96 163.842V162.425C325.96 159.554 323.624 157.227 320.742 157.227Z" fill="#D3DFFF"/>
<path d="M396.435 157.163H345.183C342.301 157.163 339.964 159.49 339.964 162.36V163.778C339.964 166.648 342.301 168.975 345.183 168.975H396.435C399.317 168.975 401.653 166.648 401.653 163.778V162.36C401.653 159.49 399.317 157.163 396.435 157.163Z" fill="#D3DFFF"/>
<path d="M351.892 122.266H270.263V130.78H351.892V122.266Z" fill="#86A7FF"/>
<path d="M298.2 231.295H283.736V258.88H298.2V231.295Z" fill="#ADC3FF"/>
<path d="M328.032 214.886H313.568V258.88H328.032V214.886Z" fill="#D3DFFF"/>
<path d="M357.865 205.226H343.401V258.88H357.865V205.226Z" fill="#ADC3FF"/>
<path d="M387.696 228.573H373.232V258.88H387.696V228.573Z" fill="#D3DFFF"/>
<path d="M417.529 211.065H403.065V258.88H417.529V211.065Z" fill="#ADC3FF"/>
<path d="M447.361 192.901H432.897V258.88H447.361V192.901Z" fill="#D3DFFF"/>
<path d="M251.931 191.225H170.301V196.416H251.931V191.225Z" fill="#E5ECFF"/>
<path d="M251.931 205.799H170.301V258.88H251.931V205.799Z" fill="#E5ECFF"/>
<path d="M214.815 225.53C211.74 224.321 208.579 225.271 206.323 227.468C204.267 229.47 203.977 232.299 203.009 234.824C205.008 235.368 206.806 236.547 208.985 236.208C211.816 235.769 211.89 233.139 213.495 231.347C214.869 229.811 216.515 228.822 218.482 228.559C217.638 227.32 216.607 226.235 214.815 225.53Z" fill="#86A7FF"/>
<path d="M237.934 222.777C235.15 223.38 232.226 224.366 230.239 226.387C228.532 228.125 228.593 231.149 227.353 232.977C228.754 233.906 230.331 234.339 231.866 233.513C233.369 232.704 234.282 230.884 235.902 230.09C237.204 229.451 239.076 229.049 240.493 228.796C240.819 228.738 241.153 228.701 241.484 228.656V222.204C240.292 222.335 239.107 222.526 237.934 222.777Z" fill="#86A7FF"/>
<path d="M240.492 228.796C239.075 229.049 237.204 229.452 235.901 230.09C234.281 230.884 233.368 232.704 231.865 233.513C230.33 234.339 228.753 233.906 227.352 232.977C226.793 232.6 226.27 232.171 225.792 231.696C223.876 229.815 223.277 228.752 220.247 228.508C219.658 228.462 219.066 228.479 218.481 228.559C216.514 228.823 214.868 229.812 213.494 231.347C211.89 233.139 211.815 235.769 208.984 236.209C206.806 236.547 205.008 235.368 203.009 234.825C202.191 234.581 201.331 234.509 200.484 234.612C198.376 234.901 197.041 236.161 195.572 237.117C194.548 237.783 193.46 238.302 191.996 238.238C188.727 238.095 184.513 236.219 180.748 236.099V250.596H241.482V228.656C241.152 228.701 240.818 228.738 240.492 228.796Z" fill="#ADC3FF"/>
<path d="M195.573 237.117C195.33 236.908 195.106 236.68 194.903 236.433C193.4 234.574 193.279 232.215 191.615 230.472C188.376 227.08 183.951 228.422 180.749 231.308V236.099C184.513 236.219 188.728 238.095 191.996 238.238C193.461 238.302 194.549 237.782 195.573 237.117Z" fill="#86A7FF"/>
<path d="M107.877 202.601L92.3574 205.631L95.8995 182.9L105.443 183.094C105.382 183.494 105.321 183.882 105.284 184.282C104.931 187.337 105.113 190.404 105.503 193.144C105.967 196.369 106.762 199.538 107.877 202.601Z" fill="#F9B384"/>
<path d="M105.503 193.145C99.5386 190.344 97.3237 184.464 97.3237 184.464L105.284 184.282C104.931 187.337 105.114 190.404 105.503 193.145Z" fill="#102048"/>
<path d="M108.786 169.964C109.395 172.086 112.843 185.523 106.554 187.038C100.265 188.554 93.7734 182.795 93.7734 182.795L95.9037 169.863L105.033 167.135L108.786 169.964Z" fill="#F9B384"/>
<path d="M100.456 177.276C100.456 177.276 102.091 166.529 108.786 169.964C108.547 169.841 108.199 168.768 108.05 168.525C107.381 167.41 106.501 166.436 105.458 165.656C101.648 162.875 95.2243 163.886 92.1504 167.085C89.1246 170.234 89.0318 175.831 90.5897 179.899C90.8416 180.558 91.1611 181.188 91.5432 181.781C91.8921 182.305 92.3025 182.785 92.7657 183.211C93.1638 183.592 96.1505 185.937 96.1817 184.133C96.2586 179.738 100.456 177.276 100.456 177.276Z" fill="#EB5D60"/>
<path d="M101.929 179.737C103.068 178.809 103.055 176.918 101.902 175.513C100.748 174.108 98.8895 173.721 97.7508 174.649C96.6121 175.576 96.6243 177.467 97.778 178.872C98.9318 180.277 100.79 180.664 101.929 179.737Z" fill="#F9B384"/>
<path d="M110.052 179.131C110.835 179.131 111.47 178.445 111.47 177.599C111.47 176.752 110.835 176.066 110.052 176.066C109.27 176.066 108.635 176.752 108.635 177.599C108.635 178.445 109.27 179.131 110.052 179.131Z" fill="#F9B384"/>
<path d="M89.7162 290.29L71.2549 298.171C71.2549 298.171 86.4703 336.764 90.9335 339.189C95.3967 341.613 93.1651 320.194 96.208 313.729L100.063 298.575L89.7162 290.29Z" fill="#102048"/>
<path d="M88.2623 312.209L88.1274 314.141L96.1405 314.696L96.2754 312.764L88.2623 312.209Z" fill="white"/>
<path d="M85.05 287.461L96.2079 313.729C96.2079 313.729 139.622 291.099 150.375 270.489L133.333 248.262L85.05 287.461Z" fill="#7D69ED"/>
<path d="M143.274 308.678C143.274 308.678 163.561 309.487 172.893 293.523L152.2 290.492L143.274 308.678Z" fill="#102048"/>
<path d="M175.007 311.436L152.12 319.489L150.274 312.985L146.921 301.205L165.998 292.213L167.339 295.078L175.007 311.436Z" fill="#F9B384"/>
<path d="M203.933 339.39L178.878 319.69L175.01 311.44L152.122 319.485L157.779 339.39H203.933Z" fill="#102048"/>
<path d="M178.113 319.095L172.94 325.662L174.469 326.857L179.642 320.29L178.113 319.095Z" fill="white"/>
<path d="M167.339 295.078L150.274 312.985L146.921 301.205L165.998 292.213L167.339 295.078Z" fill="#E28B6D"/>
<path d="M172.897 293.52C162.11 296.23 152.237 301.283 143.277 308.677L127.853 268.267C127.853 268.267 96.7361 297.808 78.1551 292.92C60.4973 288.274 68.2037 259.169 68.2037 259.169C92.4502 242.26 131.021 219.552 147.921 237.536C148 237.605 148.075 237.68 148.145 237.759C151.604 241.543 155.511 249.025 159.184 257.311C166.513 273.814 172.897 293.52 172.897 293.52Z" fill="#7D69ED"/>
<path d="M159.185 257.31C142.373 261.249 125.075 242.646 125.075 242.646L142.451 236.964L147.922 237.535C148.001 237.605 148.076 237.679 148.146 237.758C151.606 241.542 155.512 249.024 159.185 257.31Z" fill="#5B4DAD"/>
<path d="M142.823 308.85L127.661 269.124C124.373 272.236 106.483 288.539 87.6213 293.491L87.3735 292.556C107.904 287.166 127.317 268.116 127.511 267.924L128.042 267.398L143.73 308.506L142.823 308.85Z" fill="#5B4DAD"/>
<path d="M93.2092 194.163L86.3969 216.096L77.2326 245.598C77.2326 245.598 70.5467 247.989 64.6479 247.243C59.4388 246.585 54.8423 243.468 56.0861 234.051C58.8267 213.289 93.2092 194.163 93.2092 194.163Z" fill="#FBC343"/>
<path d="M86.397 216.096L77.2327 245.598C77.2327 245.598 70.5467 247.989 64.6479 247.244C69.5947 216.957 85.9595 204.056 85.9595 204.056L86.397 216.096Z" fill="#E49B31"/>
<path d="M159.856 215.873L154.783 235.116L137.66 219.029L144.453 207.685L153.636 212.563L159.856 215.873Z" fill="#FBC343"/>
<path d="M144.491 207.705L150.99 197.36L164.119 191.786L159.817 215.912L144.491 207.705Z" fill="#F9B384"/>
<path d="M208.281 187.91C204.831 187.087 201.721 187.223 198.913 188.249C196.992 188.968 195.232 190.057 193.733 191.453L187.387 176.798C189.492 176.45 191.528 175.774 193.422 174.795C196.113 173.381 198.372 171.271 199.962 168.687L208.281 187.91Z" fill="#3A3C4A"/>
<path d="M193.748 191.44L187.407 176.79L93.9824 220.961L97.3586 228.762L193.748 191.44Z" fill="#2E303D"/>
<path d="M208.281 187.91C204.831 187.087 201.721 187.223 198.913 188.249L193.422 174.795C196.113 173.381 198.373 171.271 199.962 168.687L208.281 187.91Z" fill="#2E303D"/>
<path d="M281.044 195.577C300.534 176.164 300.534 144.69 281.044 125.277C261.553 105.864 229.952 105.864 210.462 125.277C190.971 144.69 190.971 176.164 210.462 195.577C229.952 214.989 261.553 214.989 281.044 195.577Z" fill="#2E303D"/>
<path d="M275.155 189.711C291.393 173.538 291.393 147.316 275.155 131.142C258.916 114.969 232.589 114.969 216.351 131.142C200.112 147.316 200.112 173.538 216.351 189.711C232.589 205.884 258.916 205.884 275.155 189.711Z" fill="white"/>
<path d="M207.847 143.409H283.648C283.483 143.047 283.32 142.683 283.147 142.328H208.365C208.19 142.687 208.012 143.045 207.847 143.409Z" fill="#86A7FF"/>
<path d="M283.523 177.737H207.993C208.16 178.099 208.322 178.464 208.498 178.818H282.998C283.177 178.461 283.355 178.101 283.523 177.737Z" fill="#86A7FF"/>
<path d="M214.7 160.993V160.152C214.696 158.516 214.041 156.948 212.879 155.791C211.717 154.634 210.143 153.982 208.5 153.977H204.686C203.987 158.348 204 162.803 204.725 167.17H208.5C210.144 167.165 211.718 166.513 212.879 165.355C214.041 164.198 214.696 162.63 214.7 160.993Z" fill="#D3DFFF"/>
<path d="M234.4 153.975H261.482C262.307 153.975 263.124 154.137 263.886 154.452C264.649 154.766 265.341 155.227 265.925 155.808C266.508 156.389 266.971 157.079 267.287 157.838C267.602 158.598 267.765 159.411 267.765 160.233V160.911C267.765 162.57 267.103 164.162 265.925 165.335C264.746 166.509 263.148 167.168 261.482 167.168H234.4C232.734 167.168 231.136 166.509 229.958 165.336C228.78 164.162 228.118 162.57 228.118 160.911V160.233C228.118 158.574 228.78 156.982 229.958 155.808C231.136 154.635 232.734 153.976 234.4 153.976V153.975Z" fill="#D3DFFF"/>
<path d="M286.834 153.977H285.438C283.681 153.977 281.997 154.672 280.755 155.909C279.513 157.146 278.815 158.824 278.815 160.573C278.815 162.323 279.513 164 280.755 165.237C281.997 166.475 283.681 167.17 285.438 167.17H286.771C287.504 162.804 287.525 158.349 286.834 153.977Z" fill="#D3DFFF"/>
<path d="M159.856 215.874L153.637 212.563L157.427 204.365C157.427 204.365 162.704 194.87 165.337 195.276C167.971 195.673 159.856 215.874 159.856 215.874Z" fill="#F9B384"/>
<path d="M137.664 219.028L136.372 221.186C133.804 217.67 128.144 210.177 121.022 204.225C114.619 198.879 105.932 190.562 98.3489 191.714C78.0455 194.78 68.2065 259.169 68.2065 259.169L120.742 240.229L132.51 249.361C135.07 251.347 138.289 252.297 141.522 252.019C144.172 251.792 146.686 250.751 148.718 249.042C150.75 247.332 152.2 245.037 152.869 242.473L154.785 235.12L137.664 219.028Z" fill="#FBC343"/>
<path d="M106.811 227.287L106.167 228.011L120.42 240.593L121.064 239.868L106.811 227.287Z" fill="#E49B31"/>
<path d="M135.351 219.183L134.558 219.741L143.143 231.84L143.936 231.282L135.351 219.183Z" fill="#E49B31"/>
<path d="M403.712 94.0656C403.712 94.0656 401.255 101.727 395.058 105.133C388.861 108.539 380.634 112.157 383.411 113.327C386.189 114.498 393.615 113.753 393.615 113.753C393.615 113.753 379.245 124.82 383.305 125.991C387.365 127.161 397.194 119.18 397.194 119.18C397.194 119.18 395.859 122.16 397.889 122.799C399.919 123.437 403.819 122.692 403.819 122.692C403.819 122.692 403.284 124.821 407.345 124.289C411.405 123.757 421.983 110.987 421.983 110.987L422.731 99.281L403.712 94.0656Z" fill="#E28B6D"/>
<path d="M391.211 28.2994C391.211 28.2994 407.238 24.1492 431.278 39.1541C452.912 52.6569 454.357 65.9713 444.1 82.5722C433.843 99.173 421.983 110.986 421.983 110.986L403.712 94.0653L419.739 69.1635L391.211 28.2994Z" fill="#3A6BEA"/>
<path d="M385.549 30.8533C385.549 30.8533 362.898 42.9848 351.358 69.1636H430.424L408.629 34.6847L385.549 30.8533Z" fill="#3A6BEA"/>
<path d="M363.245 69.0574C363.245 69.0574 371.018 70.4143 373.742 69.0574C376.466 67.7006 367.812 63.7898 360.359 61.954C352.905 60.1183 344.172 56.8461 336.96 67.0622C329.747 77.2783 330.469 77.9966 332.793 77.8369C335.116 77.6772 340.646 70.8133 340.646 70.8133C340.646 70.8133 334.716 78.2359 337.521 79.0342C340.325 79.8325 347.056 69.696 347.056 69.696C347.056 69.696 341.286 77.9167 344.251 78.8737C347.216 79.8306 353.627 69.775 353.627 69.775C353.627 69.775 347.136 79.9109 351.062 79.6717C353.617 79.5161 356.545 75.0689 358.279 71.9809C358.77 71.0975 359.489 70.3606 360.362 69.8466C361.235 69.3325 362.229 69.0597 363.243 69.0566L363.245 69.0574Z" fill="#E28B6D"/>
<path d="M391.08 41.9986C389.15 41.9771 387.25 41.5183 385.524 40.6571L385.998 39.8122C386.319 39.9889 393.927 44.0837 398.836 36.4646L399.655 36.9874C397.103 40.9476 393.831 41.9986 391.08 41.9986Z" fill="#102048"/>
<path d="M404.119 94.3295L403.305 93.8012L423.974 62.1722L416.046 49.8525L416.864 49.3297L425.132 62.1758L404.119 94.3295Z" fill="#102048"/>
<path d="M395.741 31.8598C394.436 36.4893 388.217 37.4616 385.352 33.5931L384.588 32.5681L379.654 25.9095L384.737 19.3248L385.225 18.6907L386.381 19.5467L387.22 20.1704L396.102 26.7866C396.282 28.837 396.123 30.507 395.741 31.8598Z" fill="#E28B6D"/>
<path d="M384.588 32.5682L379.654 25.9096L384.737 19.325L386.381 19.5468L387.167 19.6533C387.167 19.6533 387.188 19.833 387.22 20.1714C387.347 21.8828 387.517 27.5478 384.588 32.5682Z" fill="#102048"/>
<path d="M365.593 15.4283C365.593 15.4283 376.598 35.1138 384.517 26.8784C390.531 20.6249 386.286 11.9941 386.286 11.9941L380.449 6.35718L367.451 10.2327L365.593 15.4283Z" fill="#E28B6D"/>
<path d="M382.572 16.3973C382.572 16.3973 378.858 10.5181 374.811 13.2924C370.765 16.0668 366.012 23.5316 360.463 19.2157C356.601 16.2118 359.225 7.67769 364.333 8.40423C364.333 8.40423 369.971 -2.36319 379.654 0.477189C389.337 3.31757 385.623 9.06476 390.796 9.92354C395.969 10.7823 412.721 11.9805 409.936 29.618C409.936 29.618 402.769 27.7124 396.786 28.3778C389.308 29.2098 384.252 16.9258 384.252 16.9258C383.766 17.0578 382.572 16.3973 382.572 16.3973Z" fill="#FBC343"/>
<path d="M383.501 19.7004C385.112 19.7004 386.419 18.0146 386.419 15.9351C386.419 13.8555 385.112 12.1697 383.501 12.1697C381.889 12.1697 380.582 13.8555 380.582 15.9351C380.582 18.0146 381.889 19.7004 383.501 19.7004Z" fill="#E28B6D"/>
<g filter="url(#filter0_d_343_11940)">
<path d="M593 338.633H7V340.085H593V338.633Z" fill="#86A7FF"/>
</g>
<path d="M497.034 286.328H456.947V309.558H497.034V286.328Z" fill="#1F3C88"/>
<path d="M501.699 339.314L523.058 350L515.793 322.331L506.398 320.533L496.561 324.034L501.699 339.314Z" fill="#102048"/>
<path d="M506.403 320.534L501.699 339.312C501.699 339.312 481.417 336.65 461.544 332.256C452.38 330.243 443.303 327.852 436.345 325.18C432.682 323.777 429.601 322.296 427.405 320.757C411.963 309.916 417.473 284.954 443.663 289.222C453.809 290.877 464.751 295.378 474.625 300.479C479.124 302.793 483.39 305.241 487.258 307.593C498.55 314.446 506.403 320.534 506.403 320.534Z" fill="#3A6BEA"/>
<path opacity="0.3" d="M487.258 307.593L461.544 332.256C452.38 330.243 443.303 327.852 436.345 325.18L474.624 300.48C479.124 302.793 483.39 305.241 487.258 307.593Z" fill="#102048"/>
<path d="M434.377 323.928L408.52 338.879L446.572 338.722L449.015 324.353L434.377 323.928Z" fill="#102048"/>
<path d="M457.028 320.629L449.015 324.353L446.572 338.722L447.092 338.72L463.012 338.933L468.567 332.016L457.028 320.629Z" fill="#F9B384"/>
<path d="M457.028 320.629C457.028 320.629 487.372 291.045 513.656 284.021C538.024 277.51 545.282 301.899 531.606 314.031C517.93 326.163 463.012 338.933 463.012 338.933L457.028 320.629Z" fill="#3A6BEA"/>
<path d="M463.13 339.401L462.893 338.464C481.738 333.724 501.103 328.578 515.076 323.063L515.435 323.963C501.41 329.497 482.008 334.653 463.13 339.401Z" fill="#102048"/>
<path d="M475.364 204.256C472.634 204.478 470.059 205.147 467.787 206.757C465.903 208.113 464.422 209.953 463.504 212.08C462.056 215.366 462.392 219.034 461.28 222.4C460.211 225.641 457.593 227.312 455.155 229.479C452.808 231.564 451.119 235.013 451.956 238.18C452.193 239.058 452.612 239.876 453.186 240.583C453.622 241.126 454.952 242.691 455.701 242.695L496.973 242.877C496.973 242.877 504.642 235.722 495.816 227.356C493.366 225.034 490.623 222.647 489.377 219.386C488.607 217.37 488.221 215.246 487.641 213.178C486.902 210.541 485.273 207.849 483.075 206.174C480.862 204.488 478.088 204.034 475.364 204.256Z" fill="#102048"/>
<path d="M471.894 206.742C471.894 206.742 465.015 201.528 471.833 199.163C477.048 197.355 481.938 199.406 478.834 206.136L471.894 206.742Z" fill="#102048"/>
<path d="M473.696 232.887C473.696 232.887 434.911 239.432 427.218 266.09C419.526 292.747 466.341 294.474 466.341 294.474C466.341 294.474 512.321 292.907 520.495 285.564C528.67 278.221 532.836 241.028 478.185 233.206L473.696 232.887Z" fill="#EB5D60"/>
<path d="M476.196 247.467C475.945 247.467 475.694 247.457 475.444 247.437C472.657 247.211 470.45 245.776 469.229 243.396L470.095 242.955C471.156 245.025 473.084 246.275 475.523 246.471C478.511 246.722 481.732 245.339 483.362 243.131L484.144 243.704C482.462 245.983 479.278 247.467 476.196 247.467Z" fill="#AB4446"/>
<path d="M440.976 263.694L440.365 264.447L460.652 280.781L461.262 280.028L440.976 263.694Z" fill="#AB4446"/>
<path d="M510.559 264.099L492.066 280.042L492.702 280.773L511.195 264.83L510.559 264.099Z" fill="#AB4446"/>
<path d="M496.018 263.324H455.649C454.292 263.324 453.192 264.419 453.192 265.771V293.812C453.192 295.163 454.292 296.259 455.649 296.259H496.018C497.375 296.259 498.475 295.163 498.475 293.812V265.771C498.475 264.419 497.375 263.324 496.018 263.324Z" fill="white"/>
<path d="M471.568 224.631L470.513 234.633C470.411 235.571 470.543 236.52 470.896 237.395C471.249 238.271 471.814 239.046 472.539 239.653C473.502 240.456 474.716 240.899 475.972 240.907C477.228 240.915 478.447 240.487 479.42 239.696L479.512 239.621C480.273 239 480.862 238.195 481.223 237.284C481.584 236.372 481.705 235.384 481.575 234.412L480.27 224.453L471.568 224.631Z" fill="#F9B384"/>
<path d="M471.377 226.689C474.451 232.691 477.921 232.812 480.569 226.841L475.121 226.143L471.377 226.689Z" fill="#102048"/>
<path d="M476.053 228.871C480.112 228.871 483.402 224.582 483.402 219.292C483.402 214.002 480.112 209.713 476.053 209.713C471.994 209.713 468.703 214.002 468.703 219.292C468.703 224.582 471.994 228.871 476.053 228.871Z" fill="#F9B384"/>
<path d="M484.616 217.716C484.616 217.716 477.251 217.594 474.816 211.653C474.816 211.653 470.859 213.047 469.824 218.14L467.024 219.11L466.963 211.107L473.173 207.167L478.712 207.288L483.582 211.35L484.616 217.716Z" fill="#102048"/>
<path d="M470.856 218.521C471.676 220.097 471.253 221.936 469.909 222.63C468.566 223.323 466.813 222.608 465.993 221.033C465.172 219.457 465.596 217.618 466.939 216.923C468.282 216.228 470.036 216.946 470.856 218.521Z" fill="#F9B384"/>
<path d="M481.515 218.521C480.695 220.097 481.119 221.936 482.461 222.63C483.804 223.323 485.558 222.608 486.379 221.033C487.199 219.457 486.775 217.618 485.432 216.923C484.089 216.228 482.335 216.946 481.515 218.521Z" fill="#F9B384"/>
<defs>
<filter id="filter0_d_343_11940" x="0" y="336.633" width="600" height="15.4518" filterUnits="userSpaceOnUse" color-interpolation-filters="sRGB">
<feFlood flood-opacity="0" result="BackgroundImageFix"/>
<feColorMatrix in="SourceAlpha" type="matrix" values="0 0 0 0 0 0 0 0 0 0 0 0 0 0 0 0 0 0 127 0" result="hardAlpha"/>
<feOffset dy="5"/>
<feGaussianBlur stdDeviation="3.5"/>
<feComposite in2="hardAlpha" operator="out"/>
<feColorMatrix type="matrix" values="0 0 0 0 0 0 0 0 0 0 0 0 0 0 0 0 0 0 0.5 0"/>
<feBlend mode="normal" in2="BackgroundImageFix" result="effect1_dropShadow_343_11940"/>
<feBlend mode="normal" in="SourceGraphic" in2="effect1_dropShadow_343_11940" result="shape"/>
</filter>
</defs>
</svg>
