<svg width="190" height="29" viewBox="0 0 190 29" fill="none" xmlns="http://www.w3.org/2000/svg">
<g clip-path="url(#clip0_603_300)">
<path d="M46.271 13.9699V20.8071H44.1746V19.0675C43.4275 20.1772 41.7648 21.0973 39.9093 21.0973C37.2586 21.0973 35.5479 19.6958 35.5479 17.6403C35.5479 15.4901 37.4034 14.0164 40.2729 14.0164C41.6201 14.0094 42.9525 14.298 44.1767 14.8619V13.9699C44.1767 12.2785 43.0202 11.1671 41.1161 11.1671C39.4296 11.1671 37.9836 11.771 37.3812 12.5683L36.128 11.3361C37.0198 10.0557 39.0439 9.23413 41.1404 9.23413C44.2704 9.23413 46.271 11.1189 46.271 13.9699ZM44.1746 17.0624V16.4824C43.0108 15.9472 41.7439 15.675 40.4636 15.6851C38.6561 15.6851 37.5477 16.4824 37.5477 17.5938C37.5477 18.5605 38.4395 19.1883 39.9817 19.1883C41.6435 19.1883 43.3786 18.3185 44.1737 17.0624H44.1746Z" fill="#2E303D"/>
<path d="M55.9568 9.66899L55.6192 11.6502C55.1077 11.4031 54.5485 11.2712 53.9808 11.2635C51.7396 11.2635 50.8483 13.7039 50.8483 16.6757V20.8071H48.7275V9.52388H50.8483V12.0847C51.4263 10.1035 52.5109 9.23366 54.0051 9.23366C54.6809 9.22095 55.3501 9.3702 55.9568 9.66899Z" fill="#2E303D"/>
<path d="M63.7474 9.5239V11.3361H61.3134V20.8071H59.217V11.3361H57.1929V9.5239H59.217V5.27173H61.3134V9.5239H63.7474Z" fill="#2E303D"/>
<path d="M76.0787 16.0718H66.9216C67.2349 18.0778 68.6805 19.1157 70.6083 19.1157C71.2615 19.1389 71.909 18.9879 72.4849 18.6781C73.0607 18.3682 73.5442 17.9107 73.886 17.3522L75.6935 18.0778C75.2041 19.0168 74.4604 19.7983 73.5478 20.3325C72.6353 20.8667 71.5909 21.1318 70.5347 21.0974C67.3298 21.0974 64.7515 18.7052 64.7515 15.1295C64.7515 11.5538 67.3298 9.23413 70.5347 9.23413C73.7396 9.23413 76.1255 11.5538 76.1255 15.1295C76.1268 15.4436 76.1025 15.7577 76.0787 16.0718ZM74.0299 14.2597C73.9558 13.3967 73.5497 12.5964 72.8977 12.0283C72.2456 11.4601 71.3986 11.1686 70.536 11.2153C68.6324 11.2153 67.283 12.2302 66.9454 14.2597H74.0299Z" fill="#2E303D"/>
<path d="M78.4395 20.8071V3.38696H80.538V20.8071H78.4395Z" fill="#2E303D"/>
<path d="M83.688 20.8071V3.38696H85.7849V20.8071H83.688Z" fill="#2E303D"/>
<path d="M99.4475 16.0718H90.2903C90.6036 18.0778 92.0492 19.1157 93.9767 19.1157C94.6298 19.1389 95.2773 18.9879 95.8532 18.678C96.4291 18.3682 96.9126 17.9107 97.2544 17.3522L99.0618 18.0778C98.5725 19.0167 97.8289 19.7981 96.9165 20.3323C96.0041 20.8664 94.9599 21.1316 93.9039 21.0973C90.6994 21.0973 88.1211 18.7052 88.1211 15.1295C88.1211 11.5538 90.6994 9.23413 93.9039 9.23413C97.1084 9.23413 99.4951 11.5538 99.4951 15.1295C99.4956 15.4436 99.4717 15.7577 99.4475 16.0718ZM97.3987 14.2596C97.3244 13.3966 96.9183 12.5964 96.2661 12.0282C95.614 11.4601 94.767 11.1686 93.9043 11.2153C92.0011 11.2153 90.6517 12.2302 90.3142 14.2596H97.3987Z" fill="#2E303D"/>
<path d="M107.134 15.1537C107.134 11.5776 109.954 9.23403 113.183 9.23403C113.983 9.21826 114.776 9.36902 115.515 9.67676C116.253 9.9845 116.92 10.4425 117.472 11.0219L116.147 12.3991C115.769 12.0161 115.319 11.7137 114.822 11.5102C114.325 11.3067 113.791 11.2064 113.255 11.2152C112.731 11.2058 112.211 11.301 111.725 11.4952C111.239 11.6895 110.796 11.979 110.423 12.3467C110.049 12.7145 109.752 13.1531 109.55 13.6371C109.348 14.121 109.243 14.6406 109.243 15.1654C109.243 15.6902 109.348 16.2098 109.55 16.6938C109.752 17.1777 110.049 17.6164 110.423 17.9841C110.796 18.3519 111.239 18.6413 111.725 18.8356C112.211 19.0299 112.731 19.1251 113.255 19.1156C113.791 19.1245 114.324 19.0242 114.822 18.8208C115.319 18.6174 115.769 18.3151 116.147 17.9321L117.472 19.3094C116.923 19.8932 116.257 20.3542 115.518 20.6622C114.779 20.9703 113.983 21.1186 113.183 21.0972C109.952 21.0972 107.134 18.7294 107.134 15.1537Z" fill="#2E303D"/>
<path d="M126.8 9.66896L126.462 11.6501C125.951 11.4031 125.392 11.2711 124.824 11.2635C122.583 11.2635 121.691 13.7039 121.691 16.6757V20.8071H119.572V9.52385H121.693V12.0846C122.271 10.1034 123.355 9.23363 124.85 9.23363C125.525 9.22119 126.194 9.37043 126.8 9.66896Z" fill="#2E303D"/>
<path d="M138.928 16.072H129.771C130.084 18.0779 131.53 19.1159 133.457 19.1159C134.11 19.139 134.758 18.988 135.334 18.6782C135.91 18.3683 136.393 17.9108 136.735 17.3523L138.542 18.0779C138.053 19.0169 137.31 19.7985 136.397 20.3328C135.485 20.8671 134.441 21.1324 133.385 21.0983C130.18 21.0983 127.602 18.7061 127.602 15.1304C127.602 11.5547 130.18 9.23511 133.385 9.23511C136.589 9.23511 138.976 11.5547 138.976 15.1304C138.976 15.4437 138.952 15.7578 138.928 16.072ZM136.879 14.2598C136.805 13.3968 136.399 12.5965 135.747 12.0284C135.095 11.4602 134.248 11.1687 133.385 11.2154C131.482 11.2154 130.132 12.2304 129.795 14.2598H136.879Z" fill="#2E303D"/>
<path d="M150.398 9.52405H152.495V20.8072H150.398V18.8013C149.975 19.515 149.371 20.1034 148.647 20.5066C147.923 20.9099 147.106 21.1134 146.278 21.0966C143.338 21.0966 140.759 18.608 140.759 15.1531C140.759 11.8185 143.194 9.2334 146.374 9.2334C148.061 9.2334 149.652 9.95895 150.398 11.2871V9.52405ZM150.398 15.1539C150.396 14.1269 149.994 13.1413 149.279 12.406C148.564 11.6708 147.591 11.2437 146.567 11.2154C144.519 11.2154 142.88 13.0276 142.88 15.1539C142.88 17.3041 144.519 19.1159 146.591 19.1159C147.101 19.1065 147.604 18.9965 148.071 18.7923C148.538 18.5881 148.96 18.2936 149.314 17.9257C149.667 17.5578 149.945 17.1236 150.131 16.648C150.317 16.1724 150.408 15.6647 150.398 15.1539Z" fill="#2E303D"/>
<path d="M160.808 9.5239V11.3361H158.375V20.8071H156.278V11.3361H154.254V9.5239H156.278V5.27173H158.375V9.5239H160.808Z" fill="#2E303D"/>
<path d="M162.256 5.36879C162.278 4.98915 162.443 4.63208 162.719 4.37087C162.994 4.10965 163.359 3.96411 163.738 3.96411C164.118 3.96411 164.482 4.10965 164.758 4.37087C165.034 4.63208 165.199 4.98915 165.22 5.36879C165.199 5.74843 165.034 6.1055 164.758 6.36672C164.482 6.62793 164.118 6.77348 163.738 6.77348C163.359 6.77348 162.994 6.62793 162.719 6.36672C162.443 6.1055 162.278 5.74843 162.256 5.36879ZM162.69 20.8073V9.52408H164.787V20.8073H162.69Z" fill="#2E303D"/>
<path d="M175.734 9.52393H177.999L173.3 20.8071H171.252L166.577 9.52393H168.818L172.288 18.1256L175.734 9.52393Z" fill="#2E303D"/>
<path d="M189.952 16.072H180.795C181.108 18.0779 182.553 19.1159 184.482 19.1159C185.135 19.139 185.782 18.988 186.358 18.6782C186.934 18.3683 187.418 17.9108 187.759 17.3523L189.567 18.0779C189.078 19.0168 188.334 19.7983 187.422 20.3326C186.51 20.8669 185.466 21.1323 184.41 21.0983C181.204 21.0983 178.626 18.7061 178.626 15.1304C178.626 11.5547 181.204 9.23511 184.41 9.23511C187.615 9.23511 190.001 11.5547 190.001 15.1304C190 15.4437 189.976 15.7578 189.952 16.072ZM187.904 14.2598C187.829 13.3968 187.423 12.5966 186.771 12.0285C186.119 11.4604 185.272 11.1688 184.409 11.2154C182.505 11.2154 181.156 12.2304 180.819 14.2598H187.904Z" fill="#2E303D"/>
<path d="M19.6664 21.1341C18.9217 22.1727 17.9256 23.0041 16.7718 23.5502C15.426 24.2192 13.9445 24.5681 12.4423 24.5698C10.2339 24.5698 8.21363 23.9953 6.93192 22.997C5.60892 21.9672 5.05895 20.4866 5.05895 18.721C5.05895 15.0808 8.20001 12.5858 13.0544 12.5858C15.3362 12.5733 17.5931 13.0619 19.6664 14.0173V12.5051C19.6664 9.64175 17.7083 7.76001 14.4855 7.76001C12.1707 7.76001 10.1236 8.43221 8.88833 9.40573C7.1041 10.3716 5.54886 11.7122 4.32891 13.3361C3.75369 14.1097 3.22245 14.9152 2.73774 15.7488C1.88695 17.1879 1.53421 18.8684 1.73436 20.5293C1.93451 22.1901 2.67633 23.7381 3.8445 24.9326C4.2857 25.3782 4.76295 25.7865 5.27136 26.1532C7.58023 27.8177 11.0031 28.6004 14.0637 28.6004C15.9866 28.6054 17.8912 28.2264 19.6664 27.4857V21.1341Z" fill="#2E303D"/>
<path d="M11.32 15.648C9.50156 16.1175 7.85547 17.2272 7.85547 18.639C7.85547 19.2528 8.65787 19.7858 9.06098 20.2122C9.7327 20.9232 10.934 21.3389 12.566 21.3389C13.9915 21.3262 15.3947 20.9832 16.6661 20.3368C17.8788 19.7539 18.9144 18.8573 19.6663 17.7393V16.7577C18.0325 15.8986 15.5036 15.4073 13.382 15.4073C12.6874 15.401 11.9947 15.4819 11.32 15.648Z" fill="#2E303D"/>
<path d="M24.8373 4.78011C23.4533 3.29976 21.7864 2.11369 19.9358 1.29248C18.0851 0.471284 16.0887 0.0317366 14.0652 0C10.538 0 7.31439 1.69609 4.84547 3.84586C3.32961 5.16229 2.11276 6.78918 1.27692 8.61692C0.44108 10.4447 0.00566116 12.4308 0 14.4415C1.05057 13.1944 1.93597 12.0561 2.6626 11.2311C6.94107 6.3759 9.68625 4.44935 14.5241 4.48776C16.9176 4.50611 19.1171 4.94016 20.5946 6.09678C22.391 7.5052 23.2134 9.856 23.2134 12.5047V25.3299C25.0616 23.7867 26.4684 21.7795 27.2901 19.5131C27.8491 17.9006 28.1338 16.2054 28.1321 14.4983C28.1321 10.8291 27.1279 7.28967 24.8373 4.78011Z" fill="#2E303D"/>
</g>
<defs>
<clipPath id="clip0_603_300">
<rect width="190" height="28.6021" fill="white"/>
</clipPath>
</defs>
</svg>
